<?xml version="1.0" encoding="UTF-8"?>
<svg xmlns="http://www.w3.org/2000/svg" viewBox="0 0 372 268" fill="none">
    <path d="M78.1882 233.729C25.1444 202.542 11.574 146.881 15.287 124.288C20.7535 76.5934 78.3673 35.4058 138.073 32.4538C175.083 30.624 176.14 17.8212 176.01 14.3941C175.7 6.16893 162.095 -12.0867 94.5507 13.6267C83.9673 17.1829 56.5379 30.3619 31.4762 54.6281C0.149063 84.961 -27.9 155.625 53.0442 223.105C98.4229 260.936 182.555 270.056 211.24 266.957C188.41 267.203 123.655 262.86 78.1882 233.729Z" fill="currentColor"/>
    <path d="M363.246 91.0876C352.145 69.6661 329.817 50.7133 318.253 46.3203C346.426 68.3732 352.805 86.4096 354.626 103.011C356.938 124.139 350.842 145.267 338.857 163.258C326.873 181.249 297.017 212 236.465 227.271C188.024 239.488 143.813 225.668 128.187 217.439C138.91 226.225 166.873 234.174 187.898 237.103C209.146 240.061 238.148 240.241 271.157 232.082C304.166 223.924 343.062 200.285 358.41 173.299C373.759 146.313 377.123 117.864 363.246 91.0876Z" fill="currentColor"/>
    <path d="M90.2444 111.061C124.725 63.7845 200.885 77.2078 225.956 87.3911C236.258 91.575 250.505 99.0433 258.023 107.087C265.845 115.454 276.105 128.843 274.423 151.436C276.933 128.516 277.619 114.569 260.744 95.6162C254.231 88.2945 246.201 81.5651 230.477 74.6622C216.311 68.4444 183.591 58.3455 140.069 71.734C120.211 77.8425 95.7555 96.3016 90.2444 111.061Z" fill="currentColor"/>
    <path d="M287.55 112.82C287.296 112.582 286.959 112.45 286.609 112.45H266.42C265.155 112.45 264.558 114.004 265.501 114.843L302.531 147.78L313.682 137.172L287.55 112.82Z" fill="currentColor"/>
    <path d="M302.758 147.983C303.051 148.242 303.218 148.614 303.218 149.005V169.795C303.218 170.551 303.834 171.166 304.596 171.166H322.12C322.881 171.166 323.498 170.551 323.498 169.795V149.004C323.498 148.615 323.663 148.245 323.953 147.985L324.467 147.525L313.682 137.171L302.531 147.78L302.758 147.983Z" fill="currentColor"/>
    <path d="M360.913 114.838C361.851 113.997 361.253 112.45 359.991 112.45H340.4C340.047 112.45 339.707 112.584 339.451 112.826L313.682 137.172L324.467 147.525L360.913 114.838Z" fill="currentColor"/>
</svg> 