<svg width="20" height="20" viewBox="0 0 20 20" fill="none" xmlns="http://www.w3.org/2000/svg">
<path d="M17.5716 12.353L10.552 19.1778C10.4796 19.2483 10.3936 19.3042 10.2989 19.3424C10.2042 19.3806 10.1027 19.4002 10.0002 19.4002C9.8977 19.4002 9.7962 19.3806 9.70152 19.3424C9.60683 19.3042 9.52081 19.2483 9.44838 19.1778L2.42877 12.353C2.28241 12.2107 2.2002 12.0177 2.2002 11.8165C2.2002 11.6153 2.28241 11.4223 2.42877 11.28C2.57512 11.1377 2.77361 11.0578 2.98059 11.0578C3.18756 11.0578 3.38605 11.1377 3.5324 11.28L9.22024 16.8109V1.9585C9.22024 1.75739 9.30241 1.56451 9.44868 1.4223C9.59495 1.28009 9.79334 1.2002 10.0002 1.2002C10.2071 1.2002 10.4054 1.28009 10.5517 1.4223C10.698 1.56451 10.7802 1.75739 10.7802 1.9585V16.8109L16.468 11.28C16.6143 11.1377 16.8128 11.0578 17.0198 11.0578C17.2268 11.0578 17.4253 11.1377 17.5716 11.28C17.718 11.4223 17.8002 11.6153 17.8002 11.8165C17.8002 12.0177 17.718 12.2107 17.5716 12.353Z" fill="white" stroke="white"/>
</svg>
