<svg width="72" height="72" viewBox="0 0 72 72" fill="none" xmlns="http://www.w3.org/2000/svg">
<g filter="url(#filter0_d_2622_10144)">
<circle cx="36" cy="32.8992" r="29.75" fill="#1A1A1A" stroke="white" stroke-width="0.5"/>
<path d="M25.9179 23.8992H46.0846C46.5708 23.8992 47.0371 24.0924 47.381 24.4362C47.7248 24.78 47.9179 25.2463 47.9179 25.7326V44.0659C47.92 44.4153 47.8212 44.758 47.6334 45.0527C47.4456 45.3474 47.1768 45.5816 46.8592 45.7274C46.6165 45.84 46.3522 45.8987 46.0846 45.8992C45.6542 45.8982 45.2381 45.7448 44.9101 45.4661L44.8998 45.4581L41.1575 42.2326H25.9179C25.4317 42.2326 24.9654 42.0394 24.6216 41.6956C24.2778 41.3518 24.0846 40.8855 24.0846 40.3992V25.7326C24.0846 25.2463 24.2778 24.78 24.6216 24.4362C24.9654 24.0924 25.4317 23.8992 25.9179 23.8992ZM25.9179 40.3992H41.5013C41.7214 40.3993 41.9341 40.4787 42.1005 40.6227L46.0846 44.0659V25.7326H25.9179V40.3992ZM40.5846 31.2326C40.5846 30.9894 40.488 30.7563 40.3161 30.5844C40.1442 30.4125 39.9111 30.3159 39.6679 30.3159H32.3346C32.0915 30.3159 31.8583 30.4125 31.6864 30.5844C31.5145 30.7563 31.4179 30.9894 31.4179 31.2326C31.4179 31.4757 31.5145 31.7088 31.6864 31.8807C31.8583 32.0527 32.0915 32.1492 32.3346 32.1492H39.6679C39.9111 32.1492 40.1442 32.0527 40.3161 31.8807C40.488 31.7088 40.5846 31.4757 40.5846 31.2326ZM40.5846 34.8992C40.5846 34.6561 40.488 34.423 40.3161 34.251C40.1442 34.0791 39.9111 33.9826 39.6679 33.9826H32.3346C32.0915 33.9826 31.8583 34.0791 31.6864 34.251C31.5145 34.423 31.4179 34.6561 31.4179 34.8992C31.4179 35.1423 31.5145 35.3755 31.6864 35.5474C31.8583 35.7193 32.0915 35.8159 32.3346 35.8159H39.6679C39.9111 35.8159 40.1442 35.7193 40.3161 35.5474C40.488 35.3755 40.5846 35.1423 40.5846 34.8992Z" fill="white"/>
</g>
<defs>
<filter id="filter0_d_2622_10144" x="0.3" y="0.199231" width="71.4" height="71.4" filterUnits="userSpaceOnUse" color-interpolation-filters="sRGB">
<feFlood flood-opacity="0" result="BackgroundImageFix"/>
<feColorMatrix in="SourceAlpha" type="matrix" values="0 0 0 0 0 0 0 0 0 0 0 0 0 0 0 0 0 0 127 0" result="hardAlpha"/>
<feOffset dy="3"/>
<feGaussianBlur stdDeviation="2.85"/>
<feComposite in2="hardAlpha" operator="out"/>
<feColorMatrix type="matrix" values="0 0 0 0 0 0 0 0 0 0 0 0 0 0 0 0 0 0 0.25 0"/>
<feBlend mode="normal" in2="BackgroundImageFix" result="effect1_dropShadow_2622_10144"/>
<feBlend mode="normal" in="SourceGraphic" in2="effect1_dropShadow_2622_10144" result="shape"/>
</filter>
</defs>
</svg>
