<?xml version="1.0" encoding="UTF-8"?>
<svg width="40" height="40" viewBox="0 0 40 40" fill="none" xmlns="http://www.w3.org/2000/svg">
  <circle cx="20" cy="20" r="20" fill="#E5E5E5"/>
  <path d="M28 26C28 27.1046 27.1046 28 26 28H14C12.8954 28 12 27.1046 12 26V14C12 12.8954 12.8954 12 14 12H26C27.1046 12 28 12.8954 28 14V26Z" fill="white"/>
  <path d="M20 15C18.3431 15 17 16.3431 17 18C17 19.6569 18.3431 21 20 21C21.6569 21 23 19.6569 23 18C23 16.3431 21.6569 15 20 15Z" fill="#333"/>
  <path d="M16 24C16 22.3431 17.7909 21 20 21C22.2091 21 24 22.3431 24 24V25H16V24Z" fill="#333"/>
</svg> 