<svg width="140" height="140" viewBox="0 0 140 140" fill="none" xmlns="http://www.w3.org/2000/svg">
<path d="M38.1819 0H33.9395V4.24242H38.1819V0Z" fill="black"/>
<path d="M50.9084 0H46.666V4.24242H50.9084V0Z" fill="black"/>
<path d="M63.637 0H59.3945V4.24242H63.637V0Z" fill="black"/>
<path d="M67.8791 0H63.6367V4.24242H67.8791V0Z" fill="black"/>
<path d="M72.1213 0H67.8789V4.24242H72.1213V0Z" fill="black"/>
<path d="M76.3635 0H72.1211V4.24242H76.3635V0Z" fill="black"/>
<path d="M80.6057 0H76.3633V4.24242H80.6057V0Z" fill="black"/>
<path d="M93.3342 0H89.0918V4.24242H93.3342V0Z" fill="black"/>
<path d="M97.5764 0H93.334V4.24242H97.5764V0Z" fill="black"/>
<path d="M101.819 0H97.5762V4.24242H101.819V0Z" fill="black"/>
<path d="M42.4241 4.24243H38.1816V8.48486H42.4241V4.24243Z" fill="black"/>
<path d="M46.6663 4.24243H42.4238V8.48486H46.6663V4.24243Z" fill="black"/>
<path d="M55.1506 4.24243H50.9082V8.48486H55.1506V4.24243Z" fill="black"/>
<path d="M72.1213 4.24243H67.8789V8.48486H72.1213V4.24243Z" fill="black"/>
<path d="M76.3635 4.24243H72.1211V8.48486H76.3635V4.24243Z" fill="black"/>
<path d="M84.8479 4.24243H80.6055V8.48486H84.8479V4.24243Z" fill="black"/>
<path d="M89.0901 4.24243H84.8477V8.48486H89.0901V4.24243Z" fill="black"/>
<path d="M93.3342 4.24243H89.0918V8.48486H93.3342V4.24243Z" fill="black"/>
<path d="M97.5764 4.24243H93.334V8.48486H97.5764V4.24243Z" fill="black"/>
<path d="M42.4241 8.48486H38.1816V12.7273H42.4241V8.48486Z" fill="black"/>
<path d="M50.9084 8.48486H46.666V12.7273H50.9084V8.48486Z" fill="black"/>
<path d="M55.1506 8.48486H50.9082V12.7273H55.1506V8.48486Z" fill="black"/>
<path d="M59.3948 8.48486H55.1523V12.7273H59.3948V8.48486Z" fill="black"/>
<path d="M67.8791 8.48486H63.6367V12.7273H67.8791V8.48486Z" fill="black"/>
<path d="M89.0901 8.48486H84.8477V12.7273H89.0901V8.48486Z" fill="black"/>
<path d="M97.5764 8.48486H93.334V12.7273H97.5764V8.48486Z" fill="black"/>
<path d="M101.819 8.48486H97.5762V12.7273H101.819V8.48486Z" fill="black"/>
<path d="M106.061 8.48486H101.818V12.7273H106.061V8.48486Z" fill="black"/>
<path d="M38.1819 12.7273H33.9395V16.9697H38.1819V12.7273Z" fill="black"/>
<path d="M55.1506 12.7273H50.9082V16.9697H55.1506V12.7273Z" fill="black"/>
<path d="M63.637 12.7273H59.3945V16.9697H63.637V12.7273Z" fill="black"/>
<path d="M76.3635 12.7273H72.1211V16.9697H76.3635V12.7273Z" fill="black"/>
<path d="M80.6057 12.7273H76.3633V16.9697H80.6057V12.7273Z" fill="black"/>
<path d="M89.0901 12.7273H84.8477V16.9697H89.0901V12.7273Z" fill="black"/>
<path d="M93.3342 12.7273H89.0918V16.9697H93.3342V12.7273Z" fill="black"/>
<path d="M101.819 12.7273H97.5762V16.9697H101.819V12.7273Z" fill="black"/>
<path d="M38.1819 16.9697H33.9395V21.2121H38.1819V16.9697Z" fill="black"/>
<path d="M42.4241 16.9697H38.1816V21.2121H42.4241V16.9697Z" fill="black"/>
<path d="M46.6663 16.9697H42.4238V21.2121H46.6663V16.9697Z" fill="black"/>
<path d="M55.1506 16.9697H50.9082V21.2121H55.1506V16.9697Z" fill="black"/>
<path d="M59.3948 16.9697H55.1523V21.2121H59.3948V16.9697Z" fill="black"/>
<path d="M63.637 16.9697H59.3945V21.2121H63.637V16.9697Z" fill="black"/>
<path d="M80.6057 16.9697H76.3633V21.2121H80.6057V16.9697Z" fill="black"/>
<path d="M84.8479 16.9697H80.6055V21.2121H84.8479V16.9697Z" fill="black"/>
<path d="M89.0901 16.9697H84.8477V21.2121H89.0901V16.9697Z" fill="black"/>
<path d="M106.061 16.9697H101.818V21.2121H106.061V16.9697Z" fill="black"/>
<path d="M38.1819 21.2121H33.9395V25.4546H38.1819V21.2121Z" fill="black"/>
<path d="M42.4241 21.2121H38.1816V25.4546H42.4241V21.2121Z" fill="black"/>
<path d="M59.3948 21.2121H55.1523V25.4546H59.3948V21.2121Z" fill="black"/>
<path d="M72.1213 21.2121H67.8789V25.4546H72.1213V21.2121Z" fill="black"/>
<path d="M84.8479 21.2121H80.6055V25.4546H84.8479V21.2121Z" fill="black"/>
<path d="M93.3342 21.2121H89.0918V25.4546H93.3342V21.2121Z" fill="black"/>
<path d="M38.1819 25.4546H33.9395V29.697H38.1819V25.4546Z" fill="black"/>
<path d="M46.6663 25.4546H42.4238V29.697H46.6663V25.4546Z" fill="black"/>
<path d="M55.1506 25.4546H50.9082V29.697H55.1506V25.4546Z" fill="black"/>
<path d="M63.637 25.4546H59.3945V29.697H63.637V25.4546Z" fill="black"/>
<path d="M72.1213 25.4546H67.8789V29.697H72.1213V25.4546Z" fill="black"/>
<path d="M80.6057 25.4546H76.3633V29.697H80.6057V25.4546Z" fill="black"/>
<path d="M89.0901 25.4546H84.8477V29.697H89.0901V25.4546Z" fill="black"/>
<path d="M97.5764 25.4546H93.334V29.697H97.5764V25.4546Z" fill="black"/>
<path d="M106.061 25.4546H101.818V29.697H106.061V25.4546Z" fill="black"/>
<path d="M38.1819 29.697H33.9395V33.9394H38.1819V29.697Z" fill="black"/>
<path d="M42.4241 29.697H38.1816V33.9394H42.4241V29.697Z" fill="black"/>
<path d="M46.6663 29.697H42.4238V33.9394H46.6663V29.697Z" fill="black"/>
<path d="M50.9084 29.697H46.666V33.9394H50.9084V29.697Z" fill="black"/>
<path d="M55.1506 29.697H50.9082V33.9394H55.1506V29.697Z" fill="black"/>
<path d="M63.637 29.697H59.3945V33.9394H63.637V29.697Z" fill="black"/>
<path d="M67.8791 29.697H63.6367V33.9394H67.8791V29.697Z" fill="black"/>
<path d="M72.1213 29.697H67.8789V33.9394H72.1213V29.697Z" fill="black"/>
<path d="M76.3635 29.697H72.1211V33.9394H76.3635V29.697Z" fill="black"/>
<path d="M80.6057 29.697H76.3633V33.9394H80.6057V29.697Z" fill="black"/>
<path d="M93.3342 29.697H89.0918V33.9394H93.3342V29.697Z" fill="black"/>
<path d="M97.5764 29.697H93.334V33.9394H97.5764V29.697Z" fill="black"/>
<path d="M101.819 29.697H97.5762V33.9394H101.819V29.697Z" fill="black"/>
<path d="M106.061 29.697H101.818V33.9394H106.061V29.697Z" fill="black"/>
<path d="M4.24242 33.9394H0V38.1818H4.24242V33.9394Z" fill="black"/>
<path d="M21.2112 33.9394H16.9688V38.1818H21.2112V33.9394Z" fill="black"/>
<path d="M29.6975 33.9394H25.4551V38.1818H29.6975V33.9394Z" fill="black"/>
<path d="M33.9397 33.9394H29.6973V38.1818H33.9397V33.9394Z" fill="black"/>
<path d="M38.1819 33.9394H33.9395V38.1818H38.1819V33.9394Z" fill="black"/>
<path d="M50.9084 33.9394H46.666V38.1818H50.9084V33.9394Z" fill="black"/>
<path d="M76.3635 33.9394H72.1211V38.1818H76.3635V33.9394Z" fill="black"/>
<path d="M84.8479 33.9394H80.6055V38.1818H84.8479V33.9394Z" fill="black"/>
<path d="M93.3342 33.9394H89.0918V38.1818H93.3342V33.9394Z" fill="black"/>
<path d="M97.5764 33.9394H93.334V38.1818H97.5764V33.9394Z" fill="black"/>
<path d="M110.303 33.9394H106.061V38.1818H110.303V33.9394Z" fill="black"/>
<path d="M114.545 33.9394H110.303V38.1818H114.545V33.9394Z" fill="black"/>
<path d="M118.787 33.9394H114.545V38.1818H118.787V33.9394Z" fill="black"/>
<path d="M123.03 33.9394H118.787V38.1818H123.03V33.9394Z" fill="black"/>
<path d="M127.274 33.9394H123.031V38.1818H127.274V33.9394Z" fill="black"/>
<path d="M140 33.9394H135.758V38.1818H140V33.9394Z" fill="black"/>
<path d="M4.24242 38.1818H0V42.4242H4.24242V38.1818Z" fill="black"/>
<path d="M33.9397 38.1818H29.6973V42.4242H33.9397V38.1818Z" fill="black"/>
<path d="M55.1506 38.1818H50.9082V42.4242H55.1506V38.1818Z" fill="black"/>
<path d="M59.3948 38.1818H55.1523V42.4242H59.3948V38.1818Z" fill="black"/>
<path d="M63.637 38.1818H59.3945V42.4242H63.637V38.1818Z" fill="black"/>
<path d="M67.8791 38.1818H63.6367V42.4242H67.8791V38.1818Z" fill="black"/>
<path d="M80.6057 38.1818H76.3633V42.4242H80.6057V38.1818Z" fill="black"/>
<path d="M101.819 38.1818H97.5762V42.4242H101.819V38.1818Z" fill="black"/>
<path d="M110.303 38.1818H106.061V42.4242H110.303V38.1818Z" fill="black"/>
<path d="M127.274 38.1818H123.031V42.4242H127.274V38.1818Z" fill="black"/>
<path d="M131.516 38.1818H127.273V42.4242H131.516V38.1818Z" fill="black"/>
<path d="M135.758 38.1818H131.516V42.4242H135.758V38.1818Z" fill="black"/>
<path d="M8.48461 42.4243H4.24219V46.6667H8.48461V42.4243Z" fill="black"/>
<path d="M16.969 42.4243H12.7266V46.6667H16.969V42.4243Z" fill="black"/>
<path d="M21.2112 42.4243H16.9688V46.6667H21.2112V42.4243Z" fill="black"/>
<path d="M29.6975 42.4243H25.4551V46.6667H29.6975V42.4243Z" fill="black"/>
<path d="M33.9397 42.4243H29.6973V46.6667H33.9397V42.4243Z" fill="black"/>
<path d="M38.1819 42.4243H33.9395V46.6667H38.1819V42.4243Z" fill="black"/>
<path d="M46.6663 42.4243H42.4238V46.6667H46.6663V42.4243Z" fill="black"/>
<path d="M50.9084 42.4243H46.666V46.6667H50.9084V42.4243Z" fill="black"/>
<path d="M55.1506 42.4243H50.9082V46.6667H55.1506V42.4243Z" fill="black"/>
<path d="M67.8791 42.4243H63.6367V46.6667H67.8791V42.4243Z" fill="black"/>
<path d="M76.3635 42.4243H72.1211V46.6667H76.3635V42.4243Z" fill="black"/>
<path d="M89.0901 42.4243H84.8477V46.6667H89.0901V42.4243Z" fill="black"/>
<path d="M93.3342 42.4243H89.0918V46.6667H93.3342V42.4243Z" fill="black"/>
<path d="M97.5764 42.4243H93.334V46.6667H97.5764V42.4243Z" fill="black"/>
<path d="M101.819 42.4243H97.5762V46.6667H101.819V42.4243Z" fill="black"/>
<path d="M106.061 42.4243H101.818V46.6667H106.061V42.4243Z" fill="black"/>
<path d="M127.274 42.4243H123.031V46.6667H127.274V42.4243Z" fill="black"/>
<path d="M8.48461 46.6667H4.24219V50.9091H8.48461V46.6667Z" fill="black"/>
<path d="M21.2112 46.6667H16.9688V50.9091H21.2112V46.6667Z" fill="black"/>
<path d="M25.4553 46.6667H21.2129V50.9091H25.4553V46.6667Z" fill="black"/>
<path d="M33.9397 46.6667H29.6973V50.9091H33.9397V46.6667Z" fill="black"/>
<path d="M42.4241 46.6667H38.1816V50.9091H42.4241V46.6667Z" fill="black"/>
<path d="M46.6663 46.6667H42.4238V50.9091H46.6663V46.6667Z" fill="black"/>
<path d="M55.1506 46.6667H50.9082V50.9091H55.1506V46.6667Z" fill="black"/>
<path d="M63.637 46.6667H59.3945V50.9091H63.637V46.6667Z" fill="black"/>
<path d="M67.8791 46.6667H63.6367V50.9091H67.8791V46.6667Z" fill="black"/>
<path d="M76.3635 46.6667H72.1211V50.9091H76.3635V46.6667Z" fill="black"/>
<path d="M80.6057 46.6667H76.3633V50.9091H80.6057V46.6667Z" fill="black"/>
<path d="M84.8479 46.6667H80.6055V50.9091H84.8479V46.6667Z" fill="black"/>
<path d="M89.0901 46.6667H84.8477V50.9091H89.0901V46.6667Z" fill="black"/>
<path d="M93.3342 46.6667H89.0918V50.9091H93.3342V46.6667Z" fill="black"/>
<path d="M101.819 46.6667H97.5762V50.9091H101.819V46.6667Z" fill="black"/>
<path d="M135.758 46.6667H131.516V50.9091H135.758V46.6667Z" fill="black"/>
<path d="M4.24242 50.9091H0V55.1515H4.24242V50.9091Z" fill="black"/>
<path d="M12.7268 50.9091H8.48438V55.1515H12.7268V50.9091Z" fill="black"/>
<path d="M25.4553 50.9091H21.2129V55.1515H25.4553V50.9091Z" fill="black"/>
<path d="M29.6975 50.9091H25.4551V55.1515H29.6975V50.9091Z" fill="black"/>
<path d="M55.1506 50.9091H50.9082V55.1515H55.1506V50.9091Z" fill="black"/>
<path d="M59.3948 50.9091H55.1523V55.1515H59.3948V50.9091Z" fill="black"/>
<path d="M63.637 50.9091H59.3945V55.1515H63.637V50.9091Z" fill="black"/>
<path d="M67.8791 50.9091H63.6367V55.1515H67.8791V50.9091Z" fill="black"/>
<path d="M80.6057 50.9091H76.3633V55.1515H80.6057V50.9091Z" fill="black"/>
<path d="M89.0901 50.9091H84.8477V55.1515H89.0901V50.9091Z" fill="black"/>
<path d="M101.819 50.9091H97.5762V55.1515H101.819V50.9091Z" fill="black"/>
<path d="M106.061 50.9091H101.818V55.1515H106.061V50.9091Z" fill="black"/>
<path d="M114.545 50.9091H110.303V55.1515H114.545V50.9091Z" fill="black"/>
<path d="M118.787 50.9091H114.545V55.1515H118.787V50.9091Z" fill="black"/>
<path d="M123.03 50.9091H118.787V55.1515H123.03V50.9091Z" fill="black"/>
<path d="M127.274 50.9091H123.031V55.1515H127.274V50.9091Z" fill="black"/>
<path d="M135.758 50.9091H131.516V55.1515H135.758V50.9091Z" fill="black"/>
<path d="M8.48461 55.1515H4.24219V59.3939H8.48461V55.1515Z" fill="black"/>
<path d="M21.2112 55.1515H16.9688V59.3939H21.2112V55.1515Z" fill="black"/>
<path d="M25.4553 55.1515H21.2129V59.3939H25.4553V55.1515Z" fill="black"/>
<path d="M33.9397 55.1515H29.6973V59.3939H33.9397V55.1515Z" fill="black"/>
<path d="M38.1819 55.1515H33.9395V59.3939H38.1819V55.1515Z" fill="black"/>
<path d="M46.6663 55.1515H42.4238V59.3939H46.6663V55.1515Z" fill="black"/>
<path d="M55.1506 55.1515H50.9082V59.3939H55.1506V55.1515Z" fill="black"/>
<path d="M59.3948 55.1515H55.1523V59.3939H59.3948V55.1515Z" fill="black"/>
<path d="M72.1213 55.1515H67.8789V59.3939H72.1213V55.1515Z" fill="black"/>
<path d="M76.3635 55.1515H72.1211V59.3939H76.3635V55.1515Z" fill="black"/>
<path d="M84.8479 55.1515H80.6055V59.3939H84.8479V55.1515Z" fill="black"/>
<path d="M93.3342 55.1515H89.0918V59.3939H93.3342V55.1515Z" fill="black"/>
<path d="M97.5764 55.1515H93.334V59.3939H97.5764V55.1515Z" fill="black"/>
<path d="M101.819 55.1515H97.5762V59.3939H101.819V55.1515Z" fill="black"/>
<path d="M110.303 55.1515H106.061V59.3939H110.303V55.1515Z" fill="black"/>
<path d="M118.787 55.1515H114.545V59.3939H118.787V55.1515Z" fill="black"/>
<path d="M127.274 55.1515H123.031V59.3939H127.274V55.1515Z" fill="black"/>
<path d="M4.24242 59.394H0V63.6364H4.24242V59.394Z" fill="black"/>
<path d="M12.7268 59.394H8.48438V63.6364H12.7268V59.394Z" fill="black"/>
<path d="M25.4553 59.394H21.2129V63.6364H25.4553V59.394Z" fill="black"/>
<path d="M29.6975 59.394H25.4551V63.6364H29.6975V59.394Z" fill="black"/>
<path d="M33.9397 59.394H29.6973V63.6364H33.9397V59.394Z" fill="black"/>
<path d="M50.9084 59.394H46.666V63.6364H50.9084V59.394Z" fill="black"/>
<path d="M63.637 59.394H59.3945V63.6364H63.637V59.394Z" fill="black"/>
<path d="M72.1213 59.394H67.8789V63.6364H72.1213V59.394Z" fill="black"/>
<path d="M76.3635 59.394H72.1211V63.6364H76.3635V59.394Z" fill="black"/>
<path d="M80.6057 59.394H76.3633V63.6364H80.6057V59.394Z" fill="black"/>
<path d="M84.8479 59.394H80.6055V63.6364H84.8479V59.394Z" fill="black"/>
<path d="M93.3342 59.394H89.0918V63.6364H93.3342V59.394Z" fill="black"/>
<path d="M101.819 59.394H97.5762V63.6364H101.819V59.394Z" fill="black"/>
<path d="M110.303 59.394H106.061V63.6364H110.303V59.394Z" fill="black"/>
<path d="M114.545 59.394H110.303V63.6364H114.545V59.394Z" fill="black"/>
<path d="M135.758 59.394H131.516V63.6364H135.758V59.394Z" fill="black"/>
<path d="M4.24242 63.6364H0V67.8788H4.24242V63.6364Z" fill="black"/>
<path d="M12.7268 63.6364H8.48438V67.8788H12.7268V63.6364Z" fill="black"/>
<path d="M16.969 63.6364H12.7266V67.8788H16.969V63.6364Z" fill="black"/>
<path d="M21.2112 63.6364H16.9688V67.8788H21.2112V63.6364Z" fill="black"/>
<path d="M25.4553 63.6364H21.2129V67.8788H25.4553V63.6364Z" fill="black"/>
<path d="M38.1819 63.6364H33.9395V67.8788H38.1819V63.6364Z" fill="black"/>
<path d="M42.4241 63.6364H38.1816V67.8788H42.4241V63.6364Z" fill="black"/>
<path d="M50.9084 63.6364H46.666V67.8788H50.9084V63.6364Z" fill="black"/>
<path d="M63.637 63.6364H59.3945V67.8788H63.637V63.6364Z" fill="black"/>
<path d="M76.3635 63.6364H72.1211V67.8788H76.3635V63.6364Z" fill="black"/>
<path d="M84.8479 63.6364H80.6055V67.8788H84.8479V63.6364Z" fill="black"/>
<path d="M89.0901 63.6364H84.8477V67.8788H89.0901V63.6364Z" fill="black"/>
<path d="M93.3342 63.6364H89.0918V67.8788H93.3342V63.6364Z" fill="black"/>
<path d="M97.5764 63.6364H93.334V67.8788H97.5764V63.6364Z" fill="black"/>
<path d="M101.819 63.6364H97.5762V67.8788H101.819V63.6364Z" fill="black"/>
<path d="M106.061 63.6364H101.818V67.8788H106.061V63.6364Z" fill="black"/>
<path d="M110.303 63.6364H106.061V67.8788H110.303V63.6364Z" fill="black"/>
<path d="M114.545 63.6364H110.303V67.8788H114.545V63.6364Z" fill="black"/>
<path d="M118.787 63.6364H114.545V67.8788H118.787V63.6364Z" fill="black"/>
<path d="M123.03 63.6364H118.787V67.8788H123.03V63.6364Z" fill="black"/>
<path d="M4.24242 67.8788H0V72.1212H4.24242V67.8788Z" fill="black"/>
<path d="M8.48461 67.8788H4.24219V72.1212H8.48461V67.8788Z" fill="black"/>
<path d="M21.2112 67.8788H16.9688V72.1212H21.2112V67.8788Z" fill="black"/>
<path d="M25.4553 67.8788H21.2129V72.1212H25.4553V67.8788Z" fill="black"/>
<path d="M29.6975 67.8788H25.4551V72.1212H29.6975V67.8788Z" fill="black"/>
<path d="M33.9397 67.8788H29.6973V72.1212H33.9397V67.8788Z" fill="black"/>
<path d="M38.1819 67.8788H33.9395V72.1212H38.1819V67.8788Z" fill="black"/>
<path d="M42.4241 67.8788H38.1816V72.1212H42.4241V67.8788Z" fill="black"/>
<path d="M63.637 67.8788H59.3945V72.1212H63.637V67.8788Z" fill="black"/>
<path d="M67.8791 67.8788H63.6367V72.1212H67.8791V67.8788Z" fill="black"/>
<path d="M76.3635 67.8788H72.1211V72.1212H76.3635V67.8788Z" fill="black"/>
<path d="M89.0901 67.8788H84.8477V72.1212H89.0901V67.8788Z" fill="black"/>
<path d="M93.3342 67.8788H89.0918V72.1212H93.3342V67.8788Z" fill="black"/>
<path d="M101.819 67.8788H97.5762V72.1212H101.819V67.8788Z" fill="black"/>
<path d="M114.545 67.8788H110.303V72.1212H114.545V67.8788Z" fill="black"/>
<path d="M123.03 67.8788H118.787V72.1212H123.03V67.8788Z" fill="black"/>
<path d="M135.758 67.8788H131.516V72.1212H135.758V67.8788Z" fill="black"/>
<path d="M4.24242 72.1212H0V76.3636H4.24242V72.1212Z" fill="black"/>
<path d="M8.48461 72.1212H4.24219V76.3636H8.48461V72.1212Z" fill="black"/>
<path d="M16.969 72.1212H12.7266V76.3636H16.969V72.1212Z" fill="black"/>
<path d="M21.2112 72.1212H16.9688V76.3636H21.2112V72.1212Z" fill="black"/>
<path d="M38.1819 72.1212H33.9395V76.3636H38.1819V72.1212Z" fill="black"/>
<path d="M50.9084 72.1212H46.666V76.3636H50.9084V72.1212Z" fill="black"/>
<path d="M55.1506 72.1212H50.9082V76.3636H55.1506V72.1212Z" fill="black"/>
<path d="M59.3948 72.1212H55.1523V76.3636H59.3948V72.1212Z" fill="black"/>
<path d="M67.8791 72.1212H63.6367V76.3636H67.8791V72.1212Z" fill="black"/>
<path d="M72.1213 72.1212H67.8789V76.3636H72.1213V72.1212Z" fill="black"/>
<path d="M76.3635 72.1212H72.1211V76.3636H76.3635V72.1212Z" fill="black"/>
<path d="M80.6057 72.1212H76.3633V76.3636H80.6057V72.1212Z" fill="black"/>
<path d="M89.0901 72.1212H84.8477V76.3636H89.0901V72.1212Z" fill="black"/>
<path d="M93.3342 72.1212H89.0918V76.3636H93.3342V72.1212Z" fill="black"/>
<path d="M101.819 72.1212H97.5762V76.3636H101.819V72.1212Z" fill="black"/>
<path d="M127.274 72.1212H123.031V76.3636H127.274V72.1212Z" fill="black"/>
<path d="M131.516 72.1212H127.273V76.3636H131.516V72.1212Z" fill="black"/>
<path d="M29.6975 76.3636H25.4551V80.6061H29.6975V76.3636Z" fill="black"/>
<path d="M33.9397 76.3636H29.6973V80.6061H33.9397V76.3636Z" fill="black"/>
<path d="M38.1819 76.3636H33.9395V80.6061H38.1819V76.3636Z" fill="black"/>
<path d="M42.4241 76.3636H38.1816V80.6061H42.4241V76.3636Z" fill="black"/>
<path d="M55.1506 76.3636H50.9082V80.6061H55.1506V76.3636Z" fill="black"/>
<path d="M63.637 76.3636H59.3945V80.6061H63.637V76.3636Z" fill="black"/>
<path d="M67.8791 76.3636H63.6367V80.6061H67.8791V76.3636Z" fill="black"/>
<path d="M80.6057 76.3636H76.3633V80.6061H80.6057V76.3636Z" fill="black"/>
<path d="M89.0901 76.3636H84.8477V80.6061H89.0901V76.3636Z" fill="black"/>
<path d="M101.819 76.3636H97.5762V80.6061H101.819V76.3636Z" fill="black"/>
<path d="M118.787 76.3636H114.545V80.6061H118.787V76.3636Z" fill="black"/>
<path d="M127.274 76.3636H123.031V80.6061H127.274V76.3636Z" fill="black"/>
<path d="M135.758 76.3636H131.516V80.6061H135.758V76.3636Z" fill="black"/>
<path d="M4.24242 80.6061H0V84.8485H4.24242V80.6061Z" fill="black"/>
<path d="M12.7268 80.6061H8.48438V84.8485H12.7268V80.6061Z" fill="black"/>
<path d="M25.4553 80.6061H21.2129V84.8485H25.4553V80.6061Z" fill="black"/>
<path d="M33.9397 80.6061H29.6973V84.8485H33.9397V80.6061Z" fill="black"/>
<path d="M55.1506 80.6061H50.9082V84.8485H55.1506V80.6061Z" fill="black"/>
<path d="M59.3948 80.6061H55.1523V84.8485H59.3948V80.6061Z" fill="black"/>
<path d="M67.8791 80.6061H63.6367V84.8485H67.8791V80.6061Z" fill="black"/>
<path d="M72.1213 80.6061H67.8789V84.8485H72.1213V80.6061Z" fill="black"/>
<path d="M89.0901 80.6061H84.8477V84.8485H89.0901V80.6061Z" fill="black"/>
<path d="M97.5764 80.6061H93.334V84.8485H97.5764V80.6061Z" fill="black"/>
<path d="M106.061 80.6061H101.818V84.8485H106.061V80.6061Z" fill="black"/>
<path d="M110.303 80.6061H106.061V84.8485H110.303V80.6061Z" fill="black"/>
<path d="M118.787 80.6061H114.545V84.8485H118.787V80.6061Z" fill="black"/>
<path d="M21.2112 84.8485H16.9688V89.0909H21.2112V84.8485Z" fill="black"/>
<path d="M29.6975 84.8485H25.4551V89.0909H29.6975V84.8485Z" fill="black"/>
<path d="M33.9397 84.8485H29.6973V89.0909H33.9397V84.8485Z" fill="black"/>
<path d="M38.1819 84.8485H33.9395V89.0909H38.1819V84.8485Z" fill="black"/>
<path d="M46.6663 84.8485H42.4238V89.0909H46.6663V84.8485Z" fill="black"/>
<path d="M50.9084 84.8485H46.666V89.0909H50.9084V84.8485Z" fill="black"/>
<path d="M59.3948 84.8485H55.1523V89.0909H59.3948V84.8485Z" fill="black"/>
<path d="M72.1213 84.8485H67.8789V89.0909H72.1213V84.8485Z" fill="black"/>
<path d="M97.5764 84.8485H93.334V89.0909H97.5764V84.8485Z" fill="black"/>
<path d="M101.819 84.8485H97.5762V89.0909H101.819V84.8485Z" fill="black"/>
<path d="M106.061 84.8485H101.818V89.0909H106.061V84.8485Z" fill="black"/>
<path d="M114.545 84.8485H110.303V89.0909H114.545V84.8485Z" fill="black"/>
<path d="M118.787 84.8485H114.545V89.0909H118.787V84.8485Z" fill="black"/>
<path d="M123.03 84.8485H118.787V89.0909H123.03V84.8485Z" fill="black"/>
<path d="M127.274 84.8485H123.031V89.0909H127.274V84.8485Z" fill="black"/>
<path d="M140 84.8485H135.758V89.0909H140V84.8485Z" fill="black"/>
<path d="M4.24242 89.0909H0V93.3333H4.24242V89.0909Z" fill="black"/>
<path d="M12.7268 89.0909H8.48438V93.3333H12.7268V89.0909Z" fill="black"/>
<path d="M16.969 89.0909H12.7266V93.3333H16.969V89.0909Z" fill="black"/>
<path d="M25.4553 89.0909H21.2129V93.3333H25.4553V89.0909Z" fill="black"/>
<path d="M38.1819 89.0909H33.9395V93.3333H38.1819V89.0909Z" fill="black"/>
<path d="M55.1506 89.0909H50.9082V93.3333H55.1506V89.0909Z" fill="black"/>
<path d="M80.6057 89.0909H76.3633V93.3333H80.6057V89.0909Z" fill="black"/>
<path d="M84.8479 89.0909H80.6055V93.3333H84.8479V89.0909Z" fill="black"/>
<path d="M89.0901 89.0909H84.8477V93.3333H89.0901V89.0909Z" fill="black"/>
<path d="M93.3342 89.0909H89.0918V93.3333H93.3342V89.0909Z" fill="black"/>
<path d="M101.819 89.0909H97.5762V93.3333H101.819V89.0909Z" fill="black"/>
<path d="M110.303 89.0909H106.061V93.3333H110.303V89.0909Z" fill="black"/>
<path d="M118.787 89.0909H114.545V93.3333H118.787V89.0909Z" fill="black"/>
<path d="M127.274 89.0909H123.031V93.3333H127.274V89.0909Z" fill="black"/>
<path d="M135.758 89.0909H131.516V93.3333H135.758V89.0909Z" fill="black"/>
<path d="M16.969 93.3333H12.7266V97.5758H16.969V93.3333Z" fill="black"/>
<path d="M29.6975 93.3333H25.4551V97.5758H29.6975V93.3333Z" fill="black"/>
<path d="M42.4241 93.3333H38.1816V97.5758H42.4241V93.3333Z" fill="black"/>
<path d="M50.9084 93.3333H46.666V97.5758H50.9084V93.3333Z" fill="black"/>
<path d="M55.1506 93.3333H50.9082V97.5758H55.1506V93.3333Z" fill="black"/>
<path d="M67.8791 93.3333H63.6367V97.5758H67.8791V93.3333Z" fill="black"/>
<path d="M76.3635 93.3333H72.1211V97.5758H76.3635V93.3333Z" fill="black"/>
<path d="M80.6057 93.3333H76.3633V97.5758H80.6057V93.3333Z" fill="black"/>
<path d="M89.0901 93.3333H84.8477V97.5758H89.0901V93.3333Z" fill="black"/>
<path d="M101.819 93.3333H97.5762V97.5758H101.819V93.3333Z" fill="black"/>
<path d="M110.303 93.3333H106.061V97.5758H110.303V93.3333Z" fill="black"/>
<path d="M118.787 93.3333H114.545V97.5758H118.787V93.3333Z" fill="black"/>
<path d="M123.03 93.3333H118.787V97.5758H123.03V93.3333Z" fill="black"/>
<path d="M127.274 93.3333H123.031V97.5758H127.274V93.3333Z" fill="black"/>
<path d="M135.758 93.3333H131.516V97.5758H135.758V93.3333Z" fill="black"/>
<path d="M16.969 97.5757H12.7266V101.818H16.969V97.5757Z" fill="black"/>
<path d="M33.9397 97.5757H29.6973V101.818H33.9397V97.5757Z" fill="black"/>
<path d="M46.6663 97.5757H42.4238V101.818H46.6663V97.5757Z" fill="black"/>
<path d="M59.3948 97.5757H55.1523V101.818H59.3948V97.5757Z" fill="black"/>
<path d="M67.8791 97.5757H63.6367V101.818H67.8791V97.5757Z" fill="black"/>
<path d="M72.1213 97.5757H67.8789V101.818H72.1213V97.5757Z" fill="black"/>
<path d="M76.3635 97.5757H72.1211V101.818H76.3635V97.5757Z" fill="black"/>
<path d="M80.6057 97.5757H76.3633V101.818H80.6057V97.5757Z" fill="black"/>
<path d="M93.3342 97.5757H89.0918V101.818H93.3342V97.5757Z" fill="black"/>
<path d="M97.5764 97.5757H93.334V101.818H97.5764V97.5757Z" fill="black"/>
<path d="M101.819 97.5757H97.5762V101.818H101.819V97.5757Z" fill="black"/>
<path d="M106.061 97.5757H101.818V101.818H106.061V97.5757Z" fill="black"/>
<path d="M123.03 97.5757H118.787V101.818H123.03V97.5757Z" fill="black"/>
<path d="M4.24242 101.818H0V106.061H4.24242V101.818Z" fill="black"/>
<path d="M8.48461 101.818H4.24219V106.061H8.48461V101.818Z" fill="black"/>
<path d="M25.4553 101.818H21.2129V106.061H25.4553V101.818Z" fill="black"/>
<path d="M29.6975 101.818H25.4551V106.061H29.6975V101.818Z" fill="black"/>
<path d="M33.9397 101.818H29.6973V106.061H33.9397V101.818Z" fill="black"/>
<path d="M38.1819 101.818H33.9395V106.061H38.1819V101.818Z" fill="black"/>
<path d="M42.4241 101.818H38.1816V106.061H42.4241V101.818Z" fill="black"/>
<path d="M50.9084 101.818H46.666V106.061H50.9084V101.818Z" fill="black"/>
<path d="M59.3948 101.818H55.1523V106.061H59.3948V101.818Z" fill="black"/>
<path d="M63.637 101.818H59.3945V106.061H63.637V101.818Z" fill="black"/>
<path d="M76.3635 101.818H72.1211V106.061H76.3635V101.818Z" fill="black"/>
<path d="M84.8479 101.818H80.6055V106.061H84.8479V101.818Z" fill="black"/>
<path d="M89.0901 101.818H84.8477V106.061H89.0901V101.818Z" fill="black"/>
<path d="M93.3342 101.818H89.0918V106.061H93.3342V101.818Z" fill="black"/>
<path d="M97.5764 101.818H93.334V106.061H97.5764V101.818Z" fill="black"/>
<path d="M106.061 101.818H101.818V106.061H106.061V101.818Z" fill="black"/>
<path d="M110.303 101.818H106.061V106.061H110.303V101.818Z" fill="black"/>
<path d="M114.545 101.818H110.303V106.061H114.545V101.818Z" fill="black"/>
<path d="M118.787 101.818H114.545V106.061H118.787V101.818Z" fill="black"/>
<path d="M123.03 101.818H118.787V106.061H123.03V101.818Z" fill="black"/>
<path d="M38.1819 106.061H33.9395V110.303H38.1819V106.061Z" fill="black"/>
<path d="M46.6663 106.061H42.4238V110.303H46.6663V106.061Z" fill="black"/>
<path d="M59.3948 106.061H55.1523V110.303H59.3948V106.061Z" fill="black"/>
<path d="M67.8791 106.061H63.6367V110.303H67.8791V106.061Z" fill="black"/>
<path d="M72.1213 106.061H67.8789V110.303H72.1213V106.061Z" fill="black"/>
<path d="M80.6057 106.061H76.3633V110.303H80.6057V106.061Z" fill="black"/>
<path d="M106.061 106.061H101.818V110.303H106.061V106.061Z" fill="black"/>
<path d="M123.03 106.061H118.787V110.303H123.03V106.061Z" fill="black"/>
<path d="M131.516 106.061H127.273V110.303H131.516V106.061Z" fill="black"/>
<path d="M135.758 106.061H131.516V110.303H135.758V106.061Z" fill="black"/>
<path d="M38.1819 110.303H33.9395V114.545H38.1819V110.303Z" fill="black"/>
<path d="M42.4241 110.303H38.1816V114.545H42.4241V110.303Z" fill="black"/>
<path d="M46.6663 110.303H42.4238V114.545H46.6663V110.303Z" fill="black"/>
<path d="M50.9084 110.303H46.666V114.545H50.9084V110.303Z" fill="black"/>
<path d="M55.1506 110.303H50.9082V114.545H55.1506V110.303Z" fill="black"/>
<path d="M63.637 110.303H59.3945V114.545H63.637V110.303Z" fill="black"/>
<path d="M67.8791 110.303H63.6367V114.545H67.8791V110.303Z" fill="black"/>
<path d="M72.1213 110.303H67.8789V114.545H72.1213V110.303Z" fill="black"/>
<path d="M76.3635 110.303H72.1211V114.545H76.3635V110.303Z" fill="black"/>
<path d="M89.0901 110.303H84.8477V114.545H89.0901V110.303Z" fill="black"/>
<path d="M93.3342 110.303H89.0918V114.545H93.3342V110.303Z" fill="black"/>
<path d="M97.5764 110.303H93.334V114.545H97.5764V110.303Z" fill="black"/>
<path d="M106.061 110.303H101.818V114.545H106.061V110.303Z" fill="black"/>
<path d="M114.545 110.303H110.303V114.545H114.545V110.303Z" fill="black"/>
<path d="M123.03 110.303H118.787V114.545H123.03V110.303Z" fill="black"/>
<path d="M127.274 110.303H123.031V114.545H127.274V110.303Z" fill="black"/>
<path d="M135.758 110.303H131.516V114.545H135.758V110.303Z" fill="black"/>
<path d="M46.6663 114.545H42.4238V118.788H46.6663V114.545Z" fill="black"/>
<path d="M50.9084 114.545H46.666V118.788H50.9084V114.545Z" fill="black"/>
<path d="M55.1506 114.545H50.9082V118.788H55.1506V114.545Z" fill="black"/>
<path d="M72.1213 114.545H67.8789V118.788H72.1213V114.545Z" fill="black"/>
<path d="M76.3635 114.545H72.1211V118.788H76.3635V114.545Z" fill="black"/>
<path d="M80.6057 114.545H76.3633V118.788H80.6057V114.545Z" fill="black"/>
<path d="M84.8479 114.545H80.6055V118.788H84.8479V114.545Z" fill="black"/>
<path d="M89.0901 114.545H84.8477V118.788H89.0901V114.545Z" fill="black"/>
<path d="M93.3342 114.545H89.0918V118.788H93.3342V114.545Z" fill="black"/>
<path d="M106.061 114.545H101.818V118.788H106.061V114.545Z" fill="black"/>
<path d="M123.03 114.545H118.787V118.788H123.03V114.545Z" fill="black"/>
<path d="M38.1819 118.788H33.9395V123.03H38.1819V118.788Z" fill="black"/>
<path d="M42.4241 118.788H38.1816V123.03H42.4241V118.788Z" fill="black"/>
<path d="M59.3948 118.788H55.1523V123.03H59.3948V118.788Z" fill="black"/>
<path d="M80.6057 118.788H76.3633V123.03H80.6057V118.788Z" fill="black"/>
<path d="M89.0901 118.788H84.8477V123.03H89.0901V118.788Z" fill="black"/>
<path d="M106.061 118.788H101.818V123.03H106.061V118.788Z" fill="black"/>
<path d="M110.303 118.788H106.061V123.03H110.303V118.788Z" fill="black"/>
<path d="M114.545 118.788H110.303V123.03H114.545V118.788Z" fill="black"/>
<path d="M118.787 118.788H114.545V123.03H118.787V118.788Z" fill="black"/>
<path d="M123.03 118.788H118.787V123.03H123.03V118.788Z" fill="black"/>
<path d="M127.274 118.788H123.031V123.03H127.274V118.788Z" fill="black"/>
<path d="M140 118.788H135.758V123.03H140V118.788Z" fill="black"/>
<path d="M42.4241 123.03H38.1816V127.273H42.4241V123.03Z" fill="black"/>
<path d="M50.9084 123.03H46.666V127.273H50.9084V123.03Z" fill="black"/>
<path d="M72.1213 123.03H67.8789V127.273H72.1213V123.03Z" fill="black"/>
<path d="M84.8479 123.03H80.6055V127.273H84.8479V123.03Z" fill="black"/>
<path d="M97.5764 123.03H93.334V127.273H97.5764V123.03Z" fill="black"/>
<path d="M101.819 123.03H97.5762V127.273H101.819V123.03Z" fill="black"/>
<path d="M106.061 123.03H101.818V127.273H106.061V123.03Z" fill="black"/>
<path d="M114.545 123.03H110.303V127.273H114.545V123.03Z" fill="black"/>
<path d="M118.787 123.03H114.545V127.273H118.787V123.03Z" fill="black"/>
<path d="M123.03 123.03H118.787V127.273H123.03V123.03Z" fill="black"/>
<path d="M127.274 123.03H123.031V127.273H127.274V123.03Z" fill="black"/>
<path d="M131.516 123.03H127.273V127.273H131.516V123.03Z" fill="black"/>
<path d="M135.758 123.03H131.516V127.273H135.758V123.03Z" fill="black"/>
<path d="M42.4241 127.273H38.1816V131.515H42.4241V127.273Z" fill="black"/>
<path d="M50.9084 127.273H46.666V131.515H50.9084V127.273Z" fill="black"/>
<path d="M55.1506 127.273H50.9082V131.515H55.1506V127.273Z" fill="black"/>
<path d="M63.637 127.273H59.3945V131.515H63.637V127.273Z" fill="black"/>
<path d="M72.1213 127.273H67.8789V131.515H72.1213V127.273Z" fill="black"/>
<path d="M80.6057 127.273H76.3633V131.515H80.6057V127.273Z" fill="black"/>
<path d="M84.8479 127.273H80.6055V131.515H84.8479V127.273Z" fill="black"/>
<path d="M97.5764 127.273H93.334V131.515H97.5764V127.273Z" fill="black"/>
<path d="M101.819 127.273H97.5762V131.515H101.819V127.273Z" fill="black"/>
<path d="M106.061 127.273H101.818V131.515H106.061V127.273Z" fill="black"/>
<path d="M114.545 127.273H110.303V131.515H114.545V127.273Z" fill="black"/>
<path d="M118.787 127.273H114.545V131.515H118.787V127.273Z" fill="black"/>
<path d="M123.03 127.273H118.787V131.515H123.03V127.273Z" fill="black"/>
<path d="M50.9084 131.515H46.666V135.758H50.9084V131.515Z" fill="black"/>
<path d="M63.637 131.515H59.3945V135.758H63.637V131.515Z" fill="black"/>
<path d="M76.3635 131.515H72.1211V135.758H76.3635V131.515Z" fill="black"/>
<path d="M80.6057 131.515H76.3633V135.758H80.6057V131.515Z" fill="black"/>
<path d="M84.8479 131.515H80.6055V135.758H84.8479V131.515Z" fill="black"/>
<path d="M89.0901 131.515H84.8477V135.758H89.0901V131.515Z" fill="black"/>
<path d="M93.3342 131.515H89.0918V135.758H93.3342V131.515Z" fill="black"/>
<path d="M101.819 131.515H97.5762V135.758H101.819V131.515Z" fill="black"/>
<path d="M106.061 131.515H101.818V135.758H106.061V131.515Z" fill="black"/>
<path d="M110.303 131.515H106.061V135.758H110.303V131.515Z" fill="black"/>
<path d="M38.1819 135.758H33.9395V140H38.1819V135.758Z" fill="black"/>
<path d="M42.4241 135.758H38.1816V140H42.4241V135.758Z" fill="black"/>
<path d="M46.6663 135.758H42.4238V140H46.6663V135.758Z" fill="black"/>
<path d="M55.1506 135.758H50.9082V140H55.1506V135.758Z" fill="black"/>
<path d="M59.3948 135.758H55.1523V140H59.3948V135.758Z" fill="black"/>
<path d="M63.637 135.758H59.3945V140H63.637V135.758Z" fill="black"/>
<path d="M67.8791 135.758H63.6367V140H67.8791V135.758Z" fill="black"/>
<path d="M72.1213 135.758H67.8789V140H72.1213V135.758Z" fill="black"/>
<path d="M76.3635 135.758H72.1211V140H76.3635V135.758Z" fill="black"/>
<path d="M89.0901 135.758H84.8477V140H89.0901V135.758Z" fill="black"/>
<path d="M93.3342 135.758H89.0918V140H93.3342V135.758Z" fill="black"/>
<path d="M97.5764 135.758H93.334V140H97.5764V135.758Z" fill="black"/>
<path d="M101.819 135.758H97.5762V140H101.819V135.758Z" fill="black"/>
<path d="M106.061 135.758H101.818V140H106.061V135.758Z" fill="black"/>
<path d="M110.303 135.758H106.061V140H110.303V135.758Z" fill="black"/>
<path d="M114.545 135.758H110.303V140H114.545V135.758Z" fill="black"/>
<path d="M127.274 135.758H123.031V140H127.274V135.758Z" fill="black"/>
<path d="M140 135.758H135.758V140H140V135.758Z" fill="black"/>
<path d="M25.2424 0H4.45455H0V4.45455V25.2424V29.697H4.45455H25.2424H29.697V25.2424V4.45455V0H25.2424ZM25.2424 25.2424H4.45455V4.45455H25.2424V25.2424Z" fill="black"/>
<path d="M135.545 0H114.757H110.303V4.45455V25.2424V29.697H114.757H135.545H140V25.2424V4.45455V0H135.545ZM135.545 25.2424H114.757V4.45455H135.545V25.2424Z" fill="black"/>
<path d="M25.2424 110.303H4.45455H0V114.758V135.545V140H4.45455H25.2424H29.697V135.545V114.758V110.303H25.2424ZM25.2424 135.545H4.45455V114.758H25.2424V135.545Z" fill="black"/>
<path d="M21.2116 8.48486H8.48438V21.2121H21.2116V8.48486Z" fill="black"/>
<path d="M131.514 8.48486H118.787V21.2121H131.514V8.48486Z" fill="black"/>
<path d="M21.2116 118.788H8.48438V131.515H21.2116V118.788Z" fill="black"/>
</svg>
