<svg width="370" height="118" viewBox="0 0 370 118" fill="none" xmlns="http://www.w3.org/2000/svg">
<path d="M185 1.04248C133.932 1.04248 87.7099 7.56047 54.2627 18.0913C37.5376 23.3572 24.0208 29.6222 14.6914 36.5669C5.35753 43.515 0.256939 51.1095 0.256836 59.0327C0.256836 66.956 5.35729 74.5513 14.6914 81.4995C24.0208 88.4442 37.5376 94.7092 54.2627 99.9751C87.7099 110.506 133.933 117.023 185 117.023C236.067 117.023 282.29 110.506 315.737 99.9751C332.462 94.7092 345.979 88.4442 355.309 81.4995C364.643 74.5513 369.743 66.956 369.743 59.0327C369.743 51.1095 364.642 43.515 355.309 36.5669C345.979 29.6222 332.462 23.3572 315.737 18.0913C282.29 7.56047 236.068 1.04248 185 1.04248Z" stroke="#1F4E75" stroke-width="0.513889"/>
<path fill-rule="evenodd" clip-rule="evenodd" d="M270.803 7.75772C249.627 13.4209 218.802 16.9868 184.486 16.9868C150.382 16.9868 119.726 13.4647 98.563 7.86227C98.9786 7.79346 99.3951 7.72512 99.8126 7.65727C100.804 7.91221 101.815 8.16276 102.846 8.40874C123.721 13.3881 152.585 16.4729 184.486 16.4729C216.387 16.4729 245.252 13.3881 266.126 8.40874C267.295 8.12996 268.438 7.84531 269.555 7.55504C269.972 7.62212 270.388 7.68968 270.803 7.75772ZM321.133 19.8522C321.354 19.9273 321.574 20.0025 321.794 20.0779C297.142 33.5885 247.153 42.8316 189.496 42.8316C129.19 42.8316 77.2717 32.7194 53.9621 18.1886C54.178 18.1208 54.3944 18.0532 54.6114 17.9858C61.9695 22.4979 72.1438 26.591 84.5296 30.0785C111.372 37.6364 148.483 42.3177 189.496 42.3177C230.509 42.3177 267.621 37.6364 294.463 30.0785C305.118 27.0783 314.137 23.63 321.133 19.8522Z" fill="#1F4E75"/>
<path fill-rule="evenodd" clip-rule="evenodd" d="M270.804 110.037C249.628 104.374 218.804 100.808 184.488 100.808C150.383 100.808 119.727 104.331 98.5642 109.933C98.9798 110.002 99.3963 110.07 99.8138 110.138C100.805 109.883 101.817 109.632 102.848 109.386C123.723 104.407 152.587 101.322 184.488 101.322C216.389 101.322 245.254 104.407 266.128 109.386C267.297 109.665 268.44 109.95 269.557 110.24C269.973 110.173 270.389 110.105 270.804 110.037ZM321.135 97.9425C321.355 97.8675 321.576 97.7923 321.795 97.7169C297.143 84.2064 247.154 74.9635 189.498 74.9635C129.191 74.9635 77.2727 85.0759 53.9634 99.607C54.1793 99.6748 54.3957 99.7423 54.6126 99.8098C61.9708 95.2975 72.1454 91.2043 84.5315 87.7167C111.374 80.1588 148.485 75.4774 189.498 75.4774C230.511 75.4774 267.623 80.1588 294.465 87.7167C305.12 90.7167 314.138 94.165 321.135 97.9425Z" fill="#1F4E75"/>
<path d="M184.871 1.42822C175.742 1.42822 167.429 7.83659 161.384 18.3032C155.342 28.7634 151.597 43.2317 151.597 59.2261C151.597 75.2204 155.342 89.6878 161.384 100.148C167.429 110.615 175.742 117.023 184.871 117.023C194 117.023 202.313 110.615 208.358 100.148C214.4 89.6878 218.145 75.2204 218.146 59.2261C218.146 43.2317 214.4 28.7634 208.358 18.3032C202.313 7.83659 194 1.42822 184.871 1.42822Z" stroke="#1F4E75" stroke-width="0.513889"/>
<path d="M184.87 1.42822C143.867 1.42836 110.742 27.3611 110.742 59.2261C110.742 91.0909 143.867 117.023 184.87 117.023C225.873 117.023 258.999 91.091 258.999 59.2261C258.999 27.3611 225.873 1.42822 184.87 1.42822Z" stroke="#1F4E75" stroke-width="0.513889"/>
<path d="M184.872 1.42822C147.47 1.42822 113.621 7.92253 89.1328 18.4116C76.8882 23.6563 66.9957 29.8948 60.168 36.8091C53.3413 43.7223 49.5908 51.2974 49.5908 59.2261C49.5909 67.1547 53.3413 74.7299 60.168 81.6431C66.9957 88.5573 76.8883 94.7959 89.1328 100.041C113.621 110.53 147.47 117.023 184.872 117.023C222.273 117.023 256.122 110.529 280.61 100.041C292.855 94.7958 302.748 88.5574 309.576 81.6431C316.403 74.7299 320.153 67.1547 320.153 59.2261C320.153 51.2974 316.403 43.7223 309.576 36.8091C302.748 29.8947 292.855 23.6564 280.61 18.4116C256.122 7.92261 222.274 1.42824 184.872 1.42822Z" stroke="#1F4E75" stroke-width="0.513889"/>
<line x1="185.257" y1="1.17139" x2="185.257" y2="117.28" stroke="#1F4E75" stroke-width="0.513889"/>
<line x1="0.257812" y1="58.776" x2="370.001" y2="58.776" stroke="#1F4E75" stroke-width="0.513889"/>
<mask id="path-9-outside-1_1436_3354" maskUnits="userSpaceOnUse" x="2.08398" y="41.8315" width="366" height="34" fill="black">
<rect fill="white" x="2.08398" y="41.8315" width="366" height="34"/>
<path d="M30.7582 51.3604C29.5174 50.1101 28.0479 49.1277 26.3499 48.4133C24.6519 47.6988 22.9376 47.3416 21.2069 47.3416C19.5089 47.3416 17.9089 47.6393 16.4068 48.2346C14.9374 48.8003 13.6312 49.604 12.4883 50.6459C11.3781 51.6879 10.5128 52.9084 9.89234 54.3076C9.27191 55.6769 8.9617 57.1654 8.9617 58.7729C8.9617 60.3507 9.27191 61.8392 9.89234 63.2383C10.5128 64.6077 11.3781 65.8133 12.4883 66.8553C13.6312 67.8972 14.9374 68.7158 16.4068 69.3112C17.9089 69.9066 19.5089 70.2043 21.2069 70.2043C22.9376 70.2043 24.6356 69.8768 26.301 69.2219C27.9663 68.5372 29.4521 67.6144 30.7582 66.4534L34.1869 69.7131C33.044 70.755 31.7378 71.663 30.2684 72.437C28.8316 73.211 27.3132 73.8064 25.7132 74.2231C24.1458 74.6399 22.5457 74.8483 20.913 74.8483C18.3987 74.8483 16.0639 74.4464 13.9088 73.6426C11.7536 72.8091 9.85968 71.663 8.22698 70.2043C6.62694 68.7456 5.36976 67.0488 4.45545 65.1138C3.54114 63.149 3.08398 61.0503 3.08398 58.8176C3.08398 56.5849 3.54114 54.5159 4.45545 52.6107C5.36976 50.6757 6.64327 48.9789 8.27596 47.5202C9.94132 46.0615 11.8516 44.9303 14.0067 44.1265C16.1946 43.3227 18.562 42.9209 21.109 42.9209C22.7417 42.9209 24.3417 43.1144 25.9091 43.5014C27.4765 43.8883 28.9623 44.4391 30.3664 45.1535C31.7705 45.868 33.0277 46.7313 34.1379 47.7435L30.7582 51.3604Z"/>
<path d="M54.6912 42.9209C57.2382 42.9209 59.6056 43.3227 61.7934 44.1265C64.0139 44.9303 65.9404 46.0615 67.5731 47.5202C69.2385 48.9789 70.5283 50.6757 71.4426 52.6107C72.3896 54.5159 72.8631 56.5849 72.8631 58.8176C72.8631 61.0503 72.3896 63.149 71.4426 65.1138C70.5283 67.0488 69.2385 68.7456 67.5731 70.2043C65.9404 71.663 64.0139 72.8091 61.7934 73.6426C59.6056 74.4464 57.2382 74.8483 54.6912 74.8483C52.1441 74.8483 49.7604 74.4464 47.5399 73.6426C45.3521 72.8091 43.4255 71.663 41.7602 70.2043C40.1275 68.7456 38.8377 67.0488 37.8907 65.1138C36.9764 63.149 36.5192 61.0503 36.5192 58.8176C36.5192 56.5849 36.9764 54.5011 37.8907 52.5661C38.8377 50.6311 40.1275 48.9491 41.7602 47.5202C43.4255 46.0615 45.3521 44.9303 47.5399 44.1265C49.7604 43.3227 52.1441 42.9209 54.6912 42.9209ZM54.7401 47.3862C53.0421 47.3862 51.4421 47.6839 49.94 48.2793C48.4706 48.8449 47.1644 49.6487 46.0215 50.6906C44.8786 51.7325 43.9806 52.9531 43.3276 54.3522C42.7071 55.7216 42.3969 57.2101 42.3969 58.8176C42.3969 60.4251 42.7235 61.9285 43.3766 63.3276C44.0296 64.7268 44.9276 65.9622 46.0705 67.0339C47.2134 68.0758 48.5196 68.8944 49.989 69.4898C51.4911 70.0852 53.0748 70.3829 54.7401 70.3829C56.4055 70.3829 57.9729 70.0852 59.4423 69.4898C60.9444 68.8944 62.2505 68.0758 63.3608 67.0339C64.471 65.9622 65.3363 64.7268 65.9568 63.3276C66.6098 61.9285 66.9364 60.4251 66.9364 58.8176C66.9364 57.2101 66.6098 55.7216 65.9568 54.3522C65.3363 52.9531 64.471 51.7325 63.3608 50.6906C62.2505 49.6487 60.9444 48.8449 59.4423 48.2793C57.9729 47.6839 56.4055 47.3862 54.7401 47.3862Z"/>
<path d="M79.0136 43.2334H85.724L97.5774 64.444L109.333 43.2334H116.043V74.4911H110.704L110.655 50.6013L99.3897 71.2313H95.7161L84.3526 50.6013V74.4911H79.0136V43.2334Z"/>
<path d="M125.077 43.2334H130.857V74.4911H125.077V43.2334Z"/>
<path d="M139.857 43.2334H145.539L165.376 68.0163L163.907 68.4628V43.2334H169.589V74.4911H163.907L144.118 49.7529L145.637 49.3063V74.4911H139.857V43.2334Z"/>
<path d="M204.071 50.9585C202.765 49.8273 201.23 48.9491 199.467 48.324C197.736 47.669 195.973 47.3416 194.177 47.3416C192.413 47.3416 190.781 47.6393 189.279 48.2346C187.776 48.83 186.454 49.6487 185.311 50.6906C184.168 51.7325 183.27 52.9531 182.617 54.3522C181.997 55.7216 181.686 57.2101 181.686 58.8176C181.686 60.4251 181.997 61.9285 182.617 63.3276C183.27 64.7268 184.168 65.9622 185.311 67.0339C186.454 68.0758 187.776 68.8944 189.279 69.4898C190.813 70.0852 192.462 70.3829 194.226 70.3829C195.826 70.3829 197.475 70.0852 199.173 69.4898C200.903 68.8944 202.454 68.0907 203.826 67.0785L207.157 70.7401C206.014 71.5439 204.691 72.2584 203.189 72.8835C201.72 73.5087 200.185 73.9999 198.585 74.3571C196.985 74.6846 195.401 74.8483 193.834 74.8483C191.287 74.8483 188.919 74.4464 186.732 73.6426C184.576 72.8091 182.666 71.663 181.001 70.2043C179.368 68.7456 178.095 67.0488 177.18 65.1138C176.266 63.149 175.809 61.0503 175.809 58.8176C175.809 56.5849 176.266 54.5159 177.18 52.6107C178.127 50.6757 179.433 48.9789 181.099 47.5202C182.764 46.0615 184.707 44.9303 186.927 44.1265C189.181 43.3227 191.597 42.9209 194.177 42.9209C195.809 42.9209 197.409 43.0995 198.977 43.4567C200.577 43.8139 202.095 44.32 203.532 44.9749C204.969 45.6298 206.242 46.4187 207.352 47.3416L204.071 50.9585ZM202.112 59.2195H207.157V70.7401H202.112V59.2195Z"/>
<path d="M249.405 50.4673C248.164 49.7529 246.94 49.1873 245.732 48.7705C244.524 48.3537 243.381 48.056 242.303 47.8774C241.226 47.6988 240.246 47.6095 239.364 47.6095C237.666 47.6095 236.311 47.9072 235.299 48.5026C234.287 49.098 233.78 49.9613 233.78 51.0925C233.78 52.1046 234.107 52.9382 234.76 53.5931C235.446 54.2183 236.327 54.7392 237.405 55.156C238.515 55.543 239.723 55.9151 241.03 56.2723C242.368 56.6296 243.691 57.0314 244.997 57.478C246.303 57.8947 247.511 58.4455 248.622 59.1302C249.732 59.8149 250.614 60.693 251.267 61.7647C251.92 62.8067 252.246 64.1314 252.246 65.7389C252.246 67.5846 251.691 69.1921 250.581 70.5615C249.471 71.9011 247.936 72.9431 245.977 73.6873C244.05 74.4315 241.83 74.8036 239.315 74.8036C237.519 74.8036 235.772 74.5952 234.074 74.1785C232.376 73.7319 230.776 73.1366 229.274 72.3923C227.805 71.6481 226.482 70.7848 225.307 69.8024L227.805 65.471C228.98 66.4534 230.221 67.2869 231.527 67.9716C232.866 68.6563 234.205 69.1773 235.544 69.5345C236.915 69.8917 238.205 70.0703 239.413 70.0703C241.438 70.0703 243.005 69.7131 244.115 68.9986C245.258 68.2842 245.83 67.2869 245.83 66.0068C245.83 64.9649 245.487 64.1314 244.801 63.5062C244.148 62.8513 243.266 62.3155 242.156 61.8987C241.079 61.4819 239.87 61.1098 238.532 60.7824C237.225 60.4549 235.903 60.0828 234.564 59.666C233.258 59.2195 232.05 58.6687 230.94 58.0138C229.862 57.3589 228.98 56.5105 228.295 55.4686C227.641 54.4266 227.315 53.1019 227.315 51.4944C227.315 49.738 227.837 48.2198 228.882 46.9397C229.927 45.6298 231.38 44.6177 233.242 43.9032C235.136 43.1888 237.323 42.8315 239.805 42.8315C242.026 42.8315 244.181 43.1292 246.271 43.7246C248.36 44.32 250.205 45.094 251.805 46.0466L249.405 50.4673Z"/>
<path d="M274.34 42.9209C276.887 42.9209 279.254 43.3227 281.442 44.1265C283.663 44.9303 285.589 46.0615 287.222 47.5202C288.887 48.9789 290.177 50.6757 291.092 52.6107C292.039 54.5159 292.512 56.5849 292.512 58.8176C292.512 61.0503 292.039 63.149 291.092 65.1138C290.177 67.0488 288.887 68.7456 287.222 70.2043C285.589 71.663 283.663 72.8091 281.442 73.6426C279.254 74.4464 276.887 74.8483 274.34 74.8483C271.793 74.8483 269.409 74.4464 267.189 73.6426C265.001 72.8091 263.074 71.663 261.409 70.2043C259.776 68.7456 258.487 67.0488 257.54 65.1138C256.625 63.149 256.168 61.0503 256.168 58.8176C256.168 56.5849 256.625 54.5011 257.54 52.5661C258.487 50.6311 259.776 48.9491 261.409 47.5202C263.074 46.0615 265.001 44.9303 267.189 44.1265C269.409 43.3227 271.793 42.9209 274.34 42.9209ZM274.389 47.3862C272.691 47.3862 271.091 47.6839 269.589 48.2793C268.119 48.8449 266.813 49.6487 265.67 50.6906C264.528 51.7325 263.63 52.9531 262.977 54.3522C262.356 55.7216 262.046 57.2101 262.046 58.8176C262.046 60.4251 262.372 61.9285 263.025 63.3276C263.679 64.7268 264.577 65.9622 265.719 67.0339C266.862 68.0758 268.168 68.8944 269.638 69.4898C271.14 70.0852 272.724 70.3829 274.389 70.3829C276.054 70.3829 277.622 70.0852 279.091 69.4898C280.593 68.8944 281.899 68.0758 283.01 67.0339C284.12 65.9622 284.985 64.7268 285.606 63.3276C286.259 61.9285 286.585 60.4251 286.585 58.8176C286.585 57.2101 286.259 55.7216 285.606 54.3522C284.985 52.9531 284.12 51.7325 283.01 50.6906C281.899 49.6487 280.593 48.8449 279.091 48.2793C277.622 47.6839 276.054 47.3862 274.389 47.3862Z"/>
<path d="M312.606 42.9209C315.153 42.9209 317.521 43.3227 319.709 44.1265C321.929 44.9303 323.856 46.0615 325.488 47.5202C327.154 48.9789 328.444 50.6757 329.358 52.6107C330.305 54.5159 330.778 56.5849 330.778 58.8176C330.778 61.0503 330.305 63.149 329.358 65.1138C328.444 67.0488 327.154 68.7456 325.488 70.2043C323.856 71.663 321.929 72.8091 319.709 73.6426C317.521 74.4464 315.153 74.8483 312.606 74.8483C310.059 74.8483 307.676 74.4464 305.455 73.6426C303.267 72.8091 301.341 71.663 299.675 70.2043C298.043 68.7456 296.753 67.0488 295.806 65.1138C294.892 63.149 294.434 61.0503 294.434 58.8176C294.434 56.5849 294.892 54.5011 295.806 52.5661C296.753 50.6311 298.043 48.9491 299.675 47.5202C301.341 46.0615 303.267 44.9303 305.455 44.1265C307.676 43.3227 310.059 42.9209 312.606 42.9209ZM312.655 47.3862C310.957 47.3862 309.357 47.6839 307.855 48.2793C306.386 48.8449 305.08 49.6487 303.937 50.6906C302.794 51.7325 301.896 52.9531 301.243 54.3522C300.622 55.7216 300.312 57.2101 300.312 58.8176C300.312 60.4251 300.639 61.9285 301.292 63.3276C301.945 64.7268 302.843 65.9622 303.986 67.0339C305.129 68.0758 306.435 68.8944 307.904 69.4898C309.406 70.0852 310.99 70.3829 312.655 70.3829C314.321 70.3829 315.888 70.0852 317.358 69.4898C318.86 68.8944 320.166 68.0758 321.276 67.0339C322.386 65.9622 323.252 64.7268 323.872 63.3276C324.525 61.9285 324.852 60.4251 324.852 58.8176C324.852 57.2101 324.525 55.7216 323.872 54.3522C323.252 52.9531 322.386 51.7325 321.276 50.6906C320.166 49.6487 318.86 48.8449 317.358 48.2793C315.888 47.6839 314.321 47.3862 312.655 47.3862Z"/>
<path d="M336.929 43.2334H342.611L362.448 68.0163L360.979 68.4628V43.2334H366.66V74.4911H360.979L341.19 49.7529L342.709 49.3063V74.4911H336.929V43.2334Z"/>
</mask>
<path d="M30.7582 51.3604C29.5174 50.1101 28.0479 49.1277 26.3499 48.4133C24.6519 47.6988 22.9376 47.3416 21.2069 47.3416C19.5089 47.3416 17.9089 47.6393 16.4068 48.2346C14.9374 48.8003 13.6312 49.604 12.4883 50.6459C11.3781 51.6879 10.5128 52.9084 9.89234 54.3076C9.27191 55.6769 8.9617 57.1654 8.9617 58.7729C8.9617 60.3507 9.27191 61.8392 9.89234 63.2383C10.5128 64.6077 11.3781 65.8133 12.4883 66.8553C13.6312 67.8972 14.9374 68.7158 16.4068 69.3112C17.9089 69.9066 19.5089 70.2043 21.2069 70.2043C22.9376 70.2043 24.6356 69.8768 26.301 69.2219C27.9663 68.5372 29.4521 67.6144 30.7582 66.4534L34.1869 69.7131C33.044 70.755 31.7378 71.663 30.2684 72.437C28.8316 73.211 27.3132 73.8064 25.7132 74.2231C24.1458 74.6399 22.5457 74.8483 20.913 74.8483C18.3987 74.8483 16.0639 74.4464 13.9088 73.6426C11.7536 72.8091 9.85968 71.663 8.22698 70.2043C6.62694 68.7456 5.36976 67.0488 4.45545 65.1138C3.54114 63.149 3.08398 61.0503 3.08398 58.8176C3.08398 56.5849 3.54114 54.5159 4.45545 52.6107C5.36976 50.6757 6.64327 48.9789 8.27596 47.5202C9.94132 46.0615 11.8516 44.9303 14.0067 44.1265C16.1946 43.3227 18.562 42.9209 21.109 42.9209C22.7417 42.9209 24.3417 43.1144 25.9091 43.5014C27.4765 43.8883 28.9623 44.4391 30.3664 45.1535C31.7705 45.868 33.0277 46.7313 34.1379 47.7435L30.7582 51.3604Z" fill="#1F4E75"/>
<path d="M54.6912 42.9209C57.2382 42.9209 59.6056 43.3227 61.7934 44.1265C64.0139 44.9303 65.9404 46.0615 67.5731 47.5202C69.2385 48.9789 70.5283 50.6757 71.4426 52.6107C72.3896 54.5159 72.8631 56.5849 72.8631 58.8176C72.8631 61.0503 72.3896 63.149 71.4426 65.1138C70.5283 67.0488 69.2385 68.7456 67.5731 70.2043C65.9404 71.663 64.0139 72.8091 61.7934 73.6426C59.6056 74.4464 57.2382 74.8483 54.6912 74.8483C52.1441 74.8483 49.7604 74.4464 47.5399 73.6426C45.3521 72.8091 43.4255 71.663 41.7602 70.2043C40.1275 68.7456 38.8377 67.0488 37.8907 65.1138C36.9764 63.149 36.5192 61.0503 36.5192 58.8176C36.5192 56.5849 36.9764 54.5011 37.8907 52.5661C38.8377 50.6311 40.1275 48.9491 41.7602 47.5202C43.4255 46.0615 45.3521 44.9303 47.5399 44.1265C49.7604 43.3227 52.1441 42.9209 54.6912 42.9209ZM54.7401 47.3862C53.0421 47.3862 51.4421 47.6839 49.94 48.2793C48.4706 48.8449 47.1644 49.6487 46.0215 50.6906C44.8786 51.7325 43.9806 52.9531 43.3276 54.3522C42.7071 55.7216 42.3969 57.2101 42.3969 58.8176C42.3969 60.4251 42.7235 61.9285 43.3766 63.3276C44.0296 64.7268 44.9276 65.9622 46.0705 67.0339C47.2134 68.0758 48.5196 68.8944 49.989 69.4898C51.4911 70.0852 53.0748 70.3829 54.7401 70.3829C56.4055 70.3829 57.9729 70.0852 59.4423 69.4898C60.9444 68.8944 62.2505 68.0758 63.3608 67.0339C64.471 65.9622 65.3363 64.7268 65.9568 63.3276C66.6098 61.9285 66.9364 60.4251 66.9364 58.8176C66.9364 57.2101 66.6098 55.7216 65.9568 54.3522C65.3363 52.9531 64.471 51.7325 63.3608 50.6906C62.2505 49.6487 60.9444 48.8449 59.4423 48.2793C57.9729 47.6839 56.4055 47.3862 54.7401 47.3862Z" fill="#1F4E75"/>
<path d="M79.0136 43.2334H85.724L97.5774 64.444L109.333 43.2334H116.043V74.4911H110.704L110.655 50.6013L99.3897 71.2313H95.7161L84.3526 50.6013V74.4911H79.0136V43.2334Z" fill="#1F4E75"/>
<path d="M125.077 43.2334H130.857V74.4911H125.077V43.2334Z" fill="#1F4E75"/>
<path d="M139.857 43.2334H145.539L165.376 68.0163L163.907 68.4628V43.2334H169.589V74.4911H163.907L144.118 49.7529L145.637 49.3063V74.4911H139.857V43.2334Z" fill="#1F4E75"/>
<path d="M204.071 50.9585C202.765 49.8273 201.23 48.9491 199.467 48.324C197.736 47.669 195.973 47.3416 194.177 47.3416C192.413 47.3416 190.781 47.6393 189.279 48.2346C187.776 48.83 186.454 49.6487 185.311 50.6906C184.168 51.7325 183.27 52.9531 182.617 54.3522C181.997 55.7216 181.686 57.2101 181.686 58.8176C181.686 60.4251 181.997 61.9285 182.617 63.3276C183.27 64.7268 184.168 65.9622 185.311 67.0339C186.454 68.0758 187.776 68.8944 189.279 69.4898C190.813 70.0852 192.462 70.3829 194.226 70.3829C195.826 70.3829 197.475 70.0852 199.173 69.4898C200.903 68.8944 202.454 68.0907 203.826 67.0785L207.157 70.7401C206.014 71.5439 204.691 72.2584 203.189 72.8835C201.72 73.5087 200.185 73.9999 198.585 74.3571C196.985 74.6846 195.401 74.8483 193.834 74.8483C191.287 74.8483 188.919 74.4464 186.732 73.6426C184.576 72.8091 182.666 71.663 181.001 70.2043C179.368 68.7456 178.095 67.0488 177.18 65.1138C176.266 63.149 175.809 61.0503 175.809 58.8176C175.809 56.5849 176.266 54.5159 177.18 52.6107C178.127 50.6757 179.433 48.9789 181.099 47.5202C182.764 46.0615 184.707 44.9303 186.927 44.1265C189.181 43.3227 191.597 42.9209 194.177 42.9209C195.809 42.9209 197.409 43.0995 198.977 43.4567C200.577 43.8139 202.095 44.32 203.532 44.9749C204.969 45.6298 206.242 46.4187 207.352 47.3416L204.071 50.9585ZM202.112 59.2195H207.157V70.7401H202.112V59.2195Z" fill="#1F4E75"/>
<path d="M249.405 50.4673C248.164 49.7529 246.94 49.1873 245.732 48.7705C244.524 48.3537 243.381 48.056 242.303 47.8774C241.226 47.6988 240.246 47.6095 239.364 47.6095C237.666 47.6095 236.311 47.9072 235.299 48.5026C234.287 49.098 233.78 49.9613 233.78 51.0925C233.78 52.1046 234.107 52.9382 234.76 53.5931C235.446 54.2183 236.327 54.7392 237.405 55.156C238.515 55.543 239.723 55.9151 241.03 56.2723C242.368 56.6296 243.691 57.0314 244.997 57.478C246.303 57.8947 247.511 58.4455 248.622 59.1302C249.732 59.8149 250.614 60.693 251.267 61.7647C251.92 62.8067 252.246 64.1314 252.246 65.7389C252.246 67.5846 251.691 69.1921 250.581 70.5615C249.471 71.9011 247.936 72.9431 245.977 73.6873C244.05 74.4315 241.83 74.8036 239.315 74.8036C237.519 74.8036 235.772 74.5952 234.074 74.1785C232.376 73.7319 230.776 73.1366 229.274 72.3923C227.805 71.6481 226.482 70.7848 225.307 69.8024L227.805 65.471C228.98 66.4534 230.221 67.2869 231.527 67.9716C232.866 68.6563 234.205 69.1773 235.544 69.5345C236.915 69.8917 238.205 70.0703 239.413 70.0703C241.438 70.0703 243.005 69.7131 244.115 68.9986C245.258 68.2842 245.83 67.2869 245.83 66.0068C245.83 64.9649 245.487 64.1314 244.801 63.5062C244.148 62.8513 243.266 62.3155 242.156 61.8987C241.079 61.4819 239.87 61.1098 238.532 60.7824C237.225 60.4549 235.903 60.0828 234.564 59.666C233.258 59.2195 232.05 58.6687 230.94 58.0138C229.862 57.3589 228.98 56.5105 228.295 55.4686C227.641 54.4266 227.315 53.1019 227.315 51.4944C227.315 49.738 227.837 48.2198 228.882 46.9397C229.927 45.6298 231.38 44.6177 233.242 43.9032C235.136 43.1888 237.323 42.8315 239.805 42.8315C242.026 42.8315 244.181 43.1292 246.271 43.7246C248.36 44.32 250.205 45.094 251.805 46.0466L249.405 50.4673Z" fill="#1F4E75"/>
<path d="M274.34 42.9209C276.887 42.9209 279.254 43.3227 281.442 44.1265C283.663 44.9303 285.589 46.0615 287.222 47.5202C288.887 48.9789 290.177 50.6757 291.092 52.6107C292.039 54.5159 292.512 56.5849 292.512 58.8176C292.512 61.0503 292.039 63.149 291.092 65.1138C290.177 67.0488 288.887 68.7456 287.222 70.2043C285.589 71.663 283.663 72.8091 281.442 73.6426C279.254 74.4464 276.887 74.8483 274.34 74.8483C271.793 74.8483 269.409 74.4464 267.189 73.6426C265.001 72.8091 263.074 71.663 261.409 70.2043C259.776 68.7456 258.487 67.0488 257.54 65.1138C256.625 63.149 256.168 61.0503 256.168 58.8176C256.168 56.5849 256.625 54.5011 257.54 52.5661C258.487 50.6311 259.776 48.9491 261.409 47.5202C263.074 46.0615 265.001 44.9303 267.189 44.1265C269.409 43.3227 271.793 42.9209 274.34 42.9209ZM274.389 47.3862C272.691 47.3862 271.091 47.6839 269.589 48.2793C268.119 48.8449 266.813 49.6487 265.67 50.6906C264.528 51.7325 263.63 52.9531 262.977 54.3522C262.356 55.7216 262.046 57.2101 262.046 58.8176C262.046 60.4251 262.372 61.9285 263.025 63.3276C263.679 64.7268 264.577 65.9622 265.719 67.0339C266.862 68.0758 268.168 68.8944 269.638 69.4898C271.14 70.0852 272.724 70.3829 274.389 70.3829C276.054 70.3829 277.622 70.0852 279.091 69.4898C280.593 68.8944 281.899 68.0758 283.01 67.0339C284.12 65.9622 284.985 64.7268 285.606 63.3276C286.259 61.9285 286.585 60.4251 286.585 58.8176C286.585 57.2101 286.259 55.7216 285.606 54.3522C284.985 52.9531 284.12 51.7325 283.01 50.6906C281.899 49.6487 280.593 48.8449 279.091 48.2793C277.622 47.6839 276.054 47.3862 274.389 47.3862Z" fill="#1F4E75"/>
<path d="M312.606 42.9209C315.153 42.9209 317.521 43.3227 319.709 44.1265C321.929 44.9303 323.856 46.0615 325.488 47.5202C327.154 48.9789 328.444 50.6757 329.358 52.6107C330.305 54.5159 330.778 56.5849 330.778 58.8176C330.778 61.0503 330.305 63.149 329.358 65.1138C328.444 67.0488 327.154 68.7456 325.488 70.2043C323.856 71.663 321.929 72.8091 319.709 73.6426C317.521 74.4464 315.153 74.8483 312.606 74.8483C310.059 74.8483 307.676 74.4464 305.455 73.6426C303.267 72.8091 301.341 71.663 299.675 70.2043C298.043 68.7456 296.753 67.0488 295.806 65.1138C294.892 63.149 294.434 61.0503 294.434 58.8176C294.434 56.5849 294.892 54.5011 295.806 52.5661C296.753 50.6311 298.043 48.9491 299.675 47.5202C301.341 46.0615 303.267 44.9303 305.455 44.1265C307.676 43.3227 310.059 42.9209 312.606 42.9209ZM312.655 47.3862C310.957 47.3862 309.357 47.6839 307.855 48.2793C306.386 48.8449 305.08 49.6487 303.937 50.6906C302.794 51.7325 301.896 52.9531 301.243 54.3522C300.622 55.7216 300.312 57.2101 300.312 58.8176C300.312 60.4251 300.639 61.9285 301.292 63.3276C301.945 64.7268 302.843 65.9622 303.986 67.0339C305.129 68.0758 306.435 68.8944 307.904 69.4898C309.406 70.0852 310.99 70.3829 312.655 70.3829C314.321 70.3829 315.888 70.0852 317.358 69.4898C318.86 68.8944 320.166 68.0758 321.276 67.0339C322.386 65.9622 323.252 64.7268 323.872 63.3276C324.525 61.9285 324.852 60.4251 324.852 58.8176C324.852 57.2101 324.525 55.7216 323.872 54.3522C323.252 52.9531 322.386 51.7325 321.276 50.6906C320.166 49.6487 318.86 48.8449 317.358 48.2793C315.888 47.6839 314.321 47.3862 312.655 47.3862Z" fill="#1F4E75"/>
<path d="M336.929 43.2334H342.611L362.448 68.0163L360.979 68.4628V43.2334H366.66V74.4911H360.979L341.19 49.7529L342.709 49.3063V74.4911H336.929V43.2334Z" fill="#1F4E75"/>
<path d="M30.7582 51.3604L30.2111 51.9034L30.7749 52.4715L31.3214 51.8867L30.7582 51.3604ZM26.3499 48.4133L26.6489 47.7028L26.3499 48.4133ZM16.4068 48.2346L16.6837 48.9541L16.6908 48.9512L16.4068 48.2346ZM12.4883 50.6459L11.969 50.0762L11.9608 50.0839L12.4883 50.6459ZM9.89234 54.3076L10.5945 54.6257L10.597 54.62L9.89234 54.3076ZM9.89234 63.2383L9.18765 63.5508L9.19021 63.5564L9.89234 63.2383ZM12.4883 66.8553L11.9608 67.4174L11.969 67.4249L12.4883 66.8553ZM16.4068 69.3112L16.1173 70.0257L16.1228 70.0278L16.4068 69.3112ZM26.301 69.2219L26.5831 69.9394L26.5941 69.9348L26.301 69.2219ZM30.7582 66.4534L31.2893 65.8947L30.7758 65.4065L30.2461 65.8772L30.7582 66.4534ZM34.1869 69.7131L34.7062 70.2827L35.3181 69.7249L34.718 69.1545L34.1869 69.7131ZM30.2684 72.437L29.9092 71.7549L29.9028 71.7584L30.2684 72.437ZM25.7132 74.2231L25.5189 73.4772L25.5151 73.4782L25.7132 74.2231ZM13.9088 73.6426L13.6307 74.3616L13.6394 74.3649L13.9088 73.6426ZM8.22698 70.2043L7.70764 70.774L7.71342 70.7791L8.22698 70.2043ZM4.45545 65.1138L3.75657 65.439L3.7585 65.4431L4.45545 65.1138ZM4.45545 52.6107L5.15042 52.9442L5.1524 52.94L4.45545 52.6107ZM8.27596 47.5202L7.76805 46.9403L7.7624 46.9454L8.27596 47.5202ZM14.0067 44.1265L13.7409 43.4029L13.7374 43.4043L14.0067 44.1265ZM25.9091 43.5014L25.7243 44.2497L25.7243 44.2497L25.9091 43.5014ZM30.3664 45.1535L30.0168 45.8406L30.0168 45.8406L30.3664 45.1535ZM34.1379 47.7435L34.7011 48.2697L35.2339 47.6995L34.6572 47.1738L34.1379 47.7435ZM61.7934 44.1265L61.5276 44.8501L61.531 44.8513L61.7934 44.1265ZM67.5731 47.5202L67.0595 48.095L67.0652 48.1L67.5731 47.5202ZM71.4426 52.6107L70.7457 52.94L70.749 52.947L70.7524 52.9538L71.4426 52.6107ZM71.4426 65.1138L70.7482 64.7791L70.7457 64.7844L71.4426 65.1138ZM67.5731 70.2043L67.0652 69.6244L67.0596 69.6295L67.5731 70.2043ZM61.7934 73.6426L62.0592 74.3662L62.0643 74.3643L61.7934 73.6426ZM47.5399 73.6426L47.2655 74.3631L47.2776 74.3674L47.5399 73.6426ZM41.7602 70.2043L41.2466 70.7792L41.2523 70.7841L41.7602 70.2043ZM37.8907 65.1138L37.1918 65.439L37.195 65.4458L37.1983 65.4526L37.8907 65.1138ZM37.8907 52.5661L37.1982 52.2272L37.1937 52.2367L37.8907 52.5661ZM41.7602 47.5202L42.2678 48.1002L42.2681 48.1L41.7602 47.5202ZM47.5399 44.1265L47.2776 43.4017L47.2741 43.403L47.5399 44.1265ZM49.94 48.2793L50.2169 48.9987L50.224 48.9959L49.94 48.2793ZM46.0215 50.6906L45.5022 50.121V50.121L46.0215 50.6906ZM43.3276 54.3522L42.629 54.0262L42.6254 54.0341L43.3276 54.3522ZM43.3766 63.3276L42.6781 63.6536L43.3766 63.3276ZM46.0705 67.0339L45.5432 67.5962L45.5512 67.6035L46.0705 67.0339ZM49.989 69.4898L49.6995 70.2043L49.7049 70.2064L49.989 69.4898ZM59.4423 69.4898L59.1583 68.7732L59.1528 68.7754L59.4423 69.4898ZM63.3608 67.0339L63.8883 67.596L63.8961 67.5885L63.3608 67.0339ZM65.9568 63.3276L65.2583 63.0016L65.2551 63.0083L65.2521 63.0151L65.9568 63.3276ZM65.9568 54.3522L65.2521 54.6647L65.2564 54.6744L65.261 54.684L65.9568 54.3522ZM63.3608 50.6906L62.8333 51.2527L63.3608 50.6906ZM59.4423 48.2793L59.1528 48.9937L59.1617 48.9973L59.1707 49.0007L59.4423 48.2793ZM79.0136 43.2334V42.4626H78.2428V43.2334H79.0136ZM85.724 43.2334L86.3969 42.8574L86.1763 42.4626H85.724V43.2334ZM97.5774 64.444L96.9045 64.82L97.5802 66.0291L98.2516 64.8176L97.5774 64.444ZM109.333 43.2334V42.4626H108.879L108.659 42.8598L109.333 43.2334ZM116.043 43.2334H116.814V42.4626H116.043V43.2334ZM116.043 74.4911V75.2619H116.814V74.4911H116.043ZM110.704 74.4911L109.933 74.4926L109.935 75.2619H110.704V74.4911ZM110.655 50.6013L111.426 50.5997L109.979 50.2319L110.655 50.6013ZM99.3897 71.2313V72.0022H99.8471L100.066 71.6008L99.3897 71.2313ZM95.7161 71.2313L95.041 71.6032L95.2607 72.0022H95.7161V71.2313ZM84.3526 50.6013L85.0277 50.2294L83.5817 50.6013H84.3526ZM84.3526 74.4911V75.2619H85.1234V74.4911H84.3526ZM79.0136 74.4911H78.2428V75.2619H79.0136V74.4911ZM125.077 43.2334V42.4626H124.306V43.2334H125.077ZM130.857 43.2334H131.627V42.4626H130.857V43.2334ZM130.857 74.4911V75.2619H131.627V74.4911H130.857ZM125.077 74.4911H124.306V75.2619H125.077V74.4911ZM139.857 43.2334V42.4626H139.086V43.2334H139.857ZM145.539 43.2334L146.141 42.7517L145.909 42.4626H145.539V43.2334ZM165.376 68.0163L165.6 68.7538L166.689 68.4229L165.978 67.5346L165.376 68.0163ZM163.907 68.4628H163.136V69.5027L164.131 69.2003L163.907 68.4628ZM163.907 43.2334V42.4626H163.136V43.2334H163.907ZM169.589 43.2334H170.359V42.4626H169.589V43.2334ZM169.589 74.4911V75.2619H170.359V74.4911H169.589ZM163.907 74.4911L163.305 74.9726L163.536 75.2619H163.907V74.4911ZM144.118 49.7529L143.901 49.0134L142.799 49.3374L143.517 50.2344L144.118 49.7529ZM145.637 49.3063H146.408V48.2762L145.419 48.5668L145.637 49.3063ZM145.637 74.4911V75.2619H146.408V74.4911H145.637ZM139.857 74.4911H139.086V75.2619H139.857V74.4911ZM204.071 50.9585L203.566 51.5412L204.136 52.0343L204.642 51.4765L204.071 50.9585ZM199.467 48.324L199.194 49.0449L199.201 49.0478L199.209 49.0505L199.467 48.324ZM189.279 48.2346L189.563 48.9512L189.279 48.2346ZM185.311 50.6906L184.792 50.121V50.121L185.311 50.6906ZM182.617 54.3522L181.919 54.0262L181.915 54.0341L182.617 54.3522ZM182.617 63.3276L181.912 63.6401L181.915 63.6469L181.919 63.6536L182.617 63.3276ZM185.311 67.0339L184.784 67.5962L184.792 67.6035L185.311 67.0339ZM189.279 69.4898L188.994 70.2064L189 70.2085L189.279 69.4898ZM199.173 69.4898L198.922 68.7609L198.918 68.7624L199.173 69.4898ZM203.826 67.0785L204.396 66.5598L203.928 66.0452L203.368 66.4583L203.826 67.0785ZM207.157 70.7401L207.6 71.3707L207.927 71.1404V70.7401H207.157ZM203.189 72.8835L202.893 72.1718L202.887 72.1742L203.189 72.8835ZM198.585 74.3571L198.739 75.1124L198.753 75.1094L198.585 74.3571ZM186.732 73.6426L186.453 74.3617L186.466 74.3662L186.732 73.6426ZM181.001 70.2043L180.487 70.7792L180.493 70.7841L181.001 70.2043ZM177.18 65.1138L176.481 65.439L176.483 65.4431L177.18 65.1138ZM177.18 52.6107L176.488 52.2719L176.485 52.2772L177.18 52.6107ZM186.927 44.1265L186.668 43.4005L186.665 43.4017L186.927 44.1265ZM198.977 43.4567L198.805 44.2083L198.809 44.209L198.977 43.4567ZM203.532 44.9749L203.212 45.6763V45.6763L203.532 44.9749ZM207.352 47.3416L207.923 47.8595L208.464 47.2634L207.845 46.7488L207.352 47.3416ZM202.112 59.2195V58.4486H201.341V59.2195H202.112ZM207.157 59.2195H207.927V58.4486H207.157V59.2195ZM202.112 70.7401H201.341V71.511H202.112V70.7401ZM249.405 50.4673L249.021 51.1353L249.706 51.5297L250.083 50.8351L249.405 50.4673ZM242.303 47.8774L242.177 48.6379V48.6379L242.303 47.8774ZM235.299 48.5026L235.69 49.167V49.167L235.299 48.5026ZM234.76 53.5931L234.214 54.1374L234.227 54.1504L234.241 54.1627L234.76 53.5931ZM237.405 55.156L237.127 55.8749L237.139 55.8796L237.151 55.8839L237.405 55.156ZM241.03 56.2723L240.826 57.0159L240.831 57.0171L241.03 56.2723ZM244.997 57.478L244.748 58.2074L244.755 58.2099L244.763 58.2123L244.997 57.478ZM248.622 59.1302L249.026 58.4741L248.622 59.1302ZM251.267 61.7647L250.608 62.1659L250.613 62.1741L251.267 61.7647ZM250.581 70.5615L251.174 71.0534L251.18 71.047L250.581 70.5615ZM245.977 73.6873L245.703 72.9667L245.699 72.9682L245.977 73.6873ZM234.074 74.1785L233.878 74.9241L233.891 74.9271L234.074 74.1785ZM229.274 72.3923L228.926 73.08L228.932 73.083L229.274 72.3923ZM225.307 69.8024L224.639 69.4173L224.315 69.9785L224.812 70.3939L225.307 69.8024ZM227.805 65.471L228.299 64.8795L227.595 64.2913L227.137 65.0859L227.805 65.471ZM231.527 67.9716L231.169 68.6544L231.176 68.6579L231.527 67.9716ZM235.544 69.5345L235.345 70.2793L235.349 70.2804L235.544 69.5345ZM244.115 68.9986L243.707 68.345L243.698 68.3504L244.115 68.9986ZM244.801 63.5062L244.255 64.0505L244.268 64.0635L244.282 64.0759L244.801 63.5062ZM242.156 61.8987L241.878 62.6177L241.885 62.6204L242.156 61.8987ZM238.532 60.7824L238.344 61.5301L238.348 61.5311L238.532 60.7824ZM234.564 59.666L234.315 60.3954L234.325 60.3988L234.335 60.402L234.564 59.666ZM230.94 58.0138L230.539 58.6726L230.548 58.6777L230.94 58.0138ZM228.295 55.4686L227.641 55.8779L227.646 55.8852L227.651 55.8923L228.295 55.4686ZM228.882 46.9397L229.479 47.4272L229.485 47.4204L228.882 46.9397ZM233.242 43.9032L232.97 43.182L232.965 43.1836L233.242 43.9032ZM246.271 43.7246L246.059 44.466V44.466L246.271 43.7246ZM251.805 46.0466L252.483 46.4144L252.836 45.7633L252.2 45.3843L251.805 46.0466ZM281.442 44.1265L281.176 44.8501L281.18 44.8513L281.442 44.1265ZM287.222 47.5202L286.708 48.095L286.714 48.1L287.222 47.5202ZM291.092 52.6107L290.395 52.94L290.398 52.947L290.401 52.9538L291.092 52.6107ZM291.092 65.1138L290.397 64.7791L290.395 64.7844L291.092 65.1138ZM287.222 70.2043L286.714 69.6244L286.708 69.6295L287.222 70.2043ZM281.442 73.6426L281.708 74.3662L281.713 74.3643L281.442 73.6426ZM267.189 73.6426L266.914 74.3631L266.926 74.3674L267.189 73.6426ZM261.409 70.2043L260.896 70.7792L260.901 70.7841L261.409 70.2043ZM257.54 65.1138L256.841 65.439L256.844 65.4458L256.847 65.4526L257.54 65.1138ZM257.54 52.5661L256.847 52.2272L256.843 52.2367L257.54 52.5661ZM261.409 47.5202L261.917 48.1002L261.917 48.1L261.409 47.5202ZM267.189 44.1265L266.926 43.4017L266.923 43.403L267.189 44.1265ZM269.589 48.2793L269.866 48.9987L269.873 48.9959L269.589 48.2793ZM265.67 50.6906L265.151 50.121V50.121L265.67 50.6906ZM262.977 54.3522L262.278 54.0262L262.274 54.0341L262.977 54.3522ZM263.025 63.3276L262.327 63.6536L263.025 63.3276ZM265.719 67.0339L265.192 67.5962L265.2 67.6035L265.719 67.0339ZM269.638 69.4898L269.348 70.2043L269.354 70.2064L269.638 69.4898ZM279.091 69.4898L278.807 68.7732L278.802 68.7754L279.091 69.4898ZM283.01 67.0339L283.537 67.596L283.545 67.5885L283.01 67.0339ZM285.606 63.3276L284.907 63.0016L284.904 63.0083L284.901 63.0151L285.606 63.3276ZM285.606 54.3522L284.901 54.6647L284.905 54.6744L284.91 54.684L285.606 54.3522ZM283.01 50.6906L282.482 51.2527L283.01 50.6906ZM279.091 48.2793L278.802 48.9937L278.811 48.9973L278.82 49.0007L279.091 48.2793ZM319.709 44.1265L319.443 44.8501L319.446 44.8513L319.709 44.1265ZM325.488 47.5202L324.975 48.095L324.981 48.1L325.488 47.5202ZM329.358 52.6107L328.661 52.94L328.664 52.947L328.668 52.9538L329.358 52.6107ZM329.358 65.1138L328.664 64.7791L328.661 64.7844L329.358 65.1138ZM325.488 70.2043L324.98 69.6244L324.975 69.6295L325.488 70.2043ZM319.709 73.6426L319.974 74.3662L319.98 74.3643L319.709 73.6426ZM305.455 73.6426L305.181 74.3631L305.193 74.3674L305.455 73.6426ZM299.675 70.2043L299.162 70.7792L299.168 70.7841L299.675 70.2043ZM295.806 65.1138L295.107 65.439L295.11 65.4458L295.114 65.4526L295.806 65.1138ZM295.806 52.5661L295.114 52.2272L295.109 52.2367L295.806 52.5661ZM299.675 47.5202L300.183 48.1002L300.183 48.1L299.675 47.5202ZM305.455 44.1265L305.193 43.4017L305.189 43.403L305.455 44.1265ZM307.855 48.2793L308.132 48.9987L308.139 48.9959L307.855 48.2793ZM303.937 50.6906L303.417 50.121V50.121L303.937 50.6906ZM301.243 54.3522L300.544 54.0262L300.541 54.0341L301.243 54.3522ZM301.292 63.3276L300.593 63.6536L301.292 63.3276ZM303.986 67.0339L303.458 67.5962L303.466 67.6035L303.986 67.0339ZM307.904 69.4898L307.615 70.2043L307.62 70.2064L307.904 69.4898ZM317.358 69.4898L317.074 68.7732L317.068 68.7754L317.358 69.4898ZM321.276 67.0339L321.804 67.596L321.811 67.5885L321.276 67.0339ZM323.872 63.3276L323.174 63.0016L323.17 63.0083L323.167 63.0151L323.872 63.3276ZM323.872 54.3522L323.167 54.6647L323.172 54.6744L323.176 54.684L323.872 54.3522ZM321.276 50.6906L320.749 51.2527L321.276 50.6906ZM317.358 48.2793L317.068 48.9937L317.077 48.9973L317.086 49.0007L317.358 48.2793ZM336.929 43.2334V42.4626H336.158V43.2334H336.929ZM342.611 43.2334L343.212 42.7517L342.981 42.4626H342.611V43.2334ZM362.448 68.0163L362.672 68.7538L363.761 68.4229L363.05 67.5346L362.448 68.0163ZM360.979 68.4628H360.208V69.5027L361.203 69.2003L360.979 68.4628ZM360.979 43.2334V42.4626H360.208V43.2334H360.979ZM366.66 43.2334H367.431V42.4626H366.66V43.2334ZM366.66 74.4911V75.2619H367.431V74.4911H366.66ZM360.979 74.4911L360.377 74.9726L360.608 75.2619H360.979V74.4911ZM341.19 49.7529L340.973 49.0134L339.871 49.3374L340.588 50.2344L341.19 49.7529ZM342.709 49.3063H343.48V48.2762L342.491 48.5668L342.709 49.3063ZM342.709 74.4911V75.2619H343.48V74.4911H342.709ZM336.929 74.4911H336.158V75.2619H336.929V74.4911ZM31.3053 50.8174C29.9903 49.4923 28.4354 48.4545 26.6489 47.7028L26.051 49.1238C27.6604 49.801 29.0445 50.7279 30.2111 51.9034L31.3053 50.8174ZM26.6489 47.7028C24.8624 46.9511 23.0468 46.5707 21.2069 46.5707V48.1124C22.8284 48.1124 24.4414 48.4465 26.051 49.1238L26.6489 47.7028ZM21.2069 46.5707C19.4167 46.5707 17.7198 46.885 16.1228 47.5181L16.6908 48.9512C18.098 48.3935 19.6012 48.1124 21.2069 48.1124V46.5707ZM16.1299 47.5153C14.5727 48.1147 13.184 48.9687 11.969 50.0763L13.0076 51.2156C14.0784 50.2394 15.302 49.4859 16.6837 48.954L16.1299 47.5153ZM11.9608 50.0839C10.775 51.1967 9.84965 52.5022 9.18767 53.9951L10.597 54.62C11.1759 53.3146 11.9811 52.179 13.0158 51.208L11.9608 50.0839ZM9.19021 53.9894C8.52142 55.4656 8.19087 57.0634 8.19087 58.7729H9.73253C9.73253 57.2674 10.0224 55.8883 10.5945 54.6257L9.19021 53.9894ZM8.19087 58.7729C8.19087 60.4549 8.52226 62.0502 9.18767 63.5508L10.597 62.9258C10.0216 61.6281 9.73253 60.2465 9.73253 58.7729H8.19087ZM9.19021 63.5564C9.85284 65.019 10.7779 66.3072 11.9608 67.4173L13.0158 66.2932C11.9783 65.3195 11.1727 64.1964 10.5945 62.9202L9.19021 63.5564ZM11.969 67.4249C13.181 68.5299 14.5655 69.3969 16.1173 70.0256L16.6963 68.5968C15.3093 68.0348 14.0814 67.2645 13.0076 66.2856L11.969 67.4249ZM16.1228 70.0278C17.7198 70.6608 19.4167 70.9751 21.2069 70.9751V69.4335C19.6012 69.4335 18.098 69.1524 16.6908 68.5946L16.1228 70.0278ZM21.2069 70.9751C23.0374 70.9751 24.831 70.6283 26.5831 69.9393L26.0188 68.5046C24.4402 69.1254 22.8378 69.4335 21.2069 69.4335V70.9751ZM26.5941 69.9348C28.3371 69.2182 29.8974 68.2498 31.2703 67.0295L30.2461 65.8772C29.0067 66.9789 27.5955 67.8562 26.0078 68.509L26.5941 69.9348ZM30.2271 67.012L33.6558 70.2718L34.718 69.1545L31.2893 65.8947L30.2271 67.012ZM33.6676 69.1435C32.5765 70.1382 31.3249 71.0092 29.9092 71.755L30.6276 73.119C32.1507 72.3167 33.5115 71.3719 34.7062 70.2827L33.6676 69.1435ZM29.9028 71.7584C28.521 72.5028 27.0601 73.0757 25.5189 73.4772L25.9075 74.9691C27.5663 74.537 29.1423 73.9192 30.634 73.1156L29.9028 71.7584ZM25.5151 73.4782C24.0128 73.8777 22.4793 74.0774 20.913 74.0774V75.6191C22.6122 75.6191 24.2788 75.4021 25.9113 74.9681L25.5151 73.4782ZM20.913 74.0774C18.4821 74.0774 16.2394 73.6892 14.1781 72.9204L13.6394 74.3649C15.8884 75.2036 18.3153 75.6191 20.913 75.6191V74.0774ZM14.1868 72.9237C12.1134 72.1218 10.3003 71.023 8.74055 69.6295L7.71342 70.7791C9.41908 72.303 11.3939 73.4964 13.6307 74.3616L14.1868 72.9237ZM8.7463 69.6347C7.21969 68.2429 6.02323 66.6274 5.1524 64.7844L3.7585 65.4431C4.71629 67.4701 6.03419 69.2483 7.70767 70.7739L8.7463 69.6347ZM5.15432 64.7885C4.28887 62.9288 3.85482 60.9414 3.85482 58.8176H2.31315C2.31315 61.1591 2.79341 63.3692 3.75658 65.439L5.15432 64.7885ZM3.85482 58.8176C3.85482 56.6937 4.28885 54.7395 5.1504 52.9442L3.7605 52.2772C2.79343 54.2924 2.31315 56.4761 2.31315 58.8176H3.85482ZM5.1524 52.94C6.0216 51.1005 7.23196 49.4866 8.78953 48.095L7.7624 46.9454C6.05457 48.4712 4.71792 50.2509 3.7585 52.2814L5.1524 52.94ZM8.78386 48.1C10.3763 46.7053 12.2049 45.6212 14.2761 44.8487L13.7374 43.4043C11.4982 44.2394 9.50638 45.4177 7.76807 46.9403L8.78386 48.1ZM14.2726 44.8501C16.3677 44.0803 18.6442 43.6917 21.109 43.6917V42.15C18.4797 42.15 16.0214 42.5651 13.7409 43.403L14.2726 44.8501ZM21.109 43.6917C22.6801 43.6917 24.2181 43.8778 25.7243 44.2497L26.0939 42.753C24.4653 42.3509 22.8032 42.15 21.109 42.15V43.6917ZM25.7243 44.2497C27.236 44.623 28.6664 45.1534 30.0168 45.8406L30.7159 44.4665C29.2581 43.7247 27.7169 43.1537 26.0939 42.753L25.7243 44.2497ZM30.0168 45.8406C31.3623 46.5252 32.5618 47.3497 33.6186 48.3131L34.6572 47.1738C33.4935 46.1129 32.1786 45.2108 30.7159 44.4665L30.0168 45.8406ZM33.5747 47.2172L30.195 50.8341L31.3214 51.8867L34.7011 48.2697L33.5747 47.2172ZM54.6912 43.6917C57.1559 43.6917 59.4324 44.0803 61.5276 44.8501L62.0592 43.403C59.7787 42.5651 57.3204 42.15 54.6912 42.15V43.6917ZM61.531 44.8513C63.6663 45.6242 65.5059 46.7069 67.0596 48.095L68.0867 46.9454C66.375 45.4161 64.3614 44.2363 62.0557 43.4017L61.531 44.8513ZM67.0652 48.1C68.6539 49.4915 69.8781 51.1039 70.7457 52.94L72.1396 52.2814C71.1785 50.2475 69.8231 48.4662 68.081 46.9403L67.0652 48.1ZM70.7524 52.9538C71.6437 54.7471 72.0922 56.6979 72.0922 58.8176H73.6339C73.6339 56.4719 73.1355 54.2847 72.1329 52.2676L70.7524 52.9538ZM72.0922 58.8176C72.0922 60.9372 71.6437 62.9212 70.7482 64.7791L72.137 65.4484C73.1355 63.3768 73.6339 61.1633 73.6339 58.8176H72.0922ZM70.7457 64.7844C69.8781 66.6205 68.6539 68.233 67.0652 69.6244L68.081 70.7841C69.8231 69.2582 71.1785 67.477 72.1396 65.4431L70.7457 64.7844ZM67.0596 69.6295C65.5037 71.0195 63.6611 72.1181 61.5225 72.921L62.0643 74.3643C64.3666 73.5 66.3772 72.3065 68.0867 70.7791L67.0596 69.6295ZM61.5276 72.9191C59.4324 73.6888 57.1559 74.0774 54.6912 74.0774V75.6191C57.3204 75.6191 59.7787 75.204 62.0592 74.3662L61.5276 72.9191ZM54.6912 74.0774C52.2266 74.0774 49.9323 73.6888 47.8023 72.9178L47.2776 74.3674C49.5885 75.204 52.0617 75.6191 54.6912 75.6191V74.0774ZM47.8144 72.9223C45.7071 72.1195 43.8607 71.0194 42.2681 69.6244L41.2523 70.7841C42.9904 72.3066 44.9971 73.4987 47.2655 74.363L47.8144 72.9223ZM42.2737 69.6295C40.7141 68.236 39.4855 66.619 38.5831 64.7749L37.1983 65.4526C38.1898 67.4786 39.5409 69.2552 41.2466 70.7791L42.2737 69.6295ZM38.5896 64.7885C37.7241 62.9288 37.2901 60.9414 37.2901 58.8176H35.7484C35.7484 61.1591 36.2286 63.3692 37.1918 65.439L38.5896 64.7885ZM37.2901 58.8176C37.2901 56.6937 37.7241 54.7229 38.5876 52.8954L37.1937 52.2367C36.2287 54.2792 35.7484 56.4761 35.7484 58.8176H37.2901ZM38.5831 52.9049C39.4847 51.0624 40.7115 49.4623 42.2678 48.1002L41.2525 46.9401C39.5434 48.4359 38.1906 50.1997 37.1983 52.2272L38.5831 52.9049ZM42.2681 48.1C43.8585 46.707 45.702 45.6229 47.8057 44.8501L47.2741 43.403C45.0022 44.2376 42.9925 45.416 41.2523 46.9403L42.2681 48.1ZM47.8023 44.8513C49.9323 44.0803 52.2266 43.6917 54.6912 43.6917V42.15C52.0617 42.15 49.5885 42.5652 47.2776 43.4017L47.8023 44.8513ZM54.7401 46.6154C52.9499 46.6154 51.253 46.9297 49.656 47.5627L50.224 48.9959C51.6312 48.4382 53.1344 48.1571 54.7401 48.1571V46.6154ZM49.6631 47.5599C48.1059 48.1593 46.7172 49.0133 45.5022 50.121L46.5408 51.2602C47.6116 50.2841 48.8352 49.5305 50.2169 48.9987L49.6631 47.5599ZM45.5022 50.121C44.2842 51.2313 43.3253 52.5346 42.6291 54.0262L44.0261 54.6782C44.636 53.3715 45.473 52.2337 46.5408 51.2602L45.5022 50.121ZM42.6254 54.0341C41.9566 55.5102 41.6261 57.1081 41.6261 58.8176H43.1678C43.1678 57.312 43.4576 55.933 44.0297 54.6703L42.6254 54.0341ZM41.6261 58.8176C41.6261 60.533 41.9754 62.1482 42.6781 63.6536L44.075 63.0016C43.4716 61.7087 43.1678 60.3172 43.1678 58.8176H41.6261ZM42.6781 63.6536C43.3733 65.1431 44.3298 66.4584 45.5432 67.5962L46.5978 66.4716C45.5254 65.466 44.686 64.3105 44.075 63.0016L42.6781 63.6536ZM45.5512 67.6035C46.7632 68.7085 48.1477 69.5755 49.6995 70.2043L50.2784 68.7754C48.8914 68.2134 47.6636 67.4431 46.5898 66.4642L45.5512 67.6035ZM49.7049 70.2064C51.3002 70.8388 52.9806 71.1537 54.7401 71.1537V69.6121C53.169 69.6121 51.6819 69.3317 50.273 68.7732L49.7049 70.2064ZM54.7401 71.1537C56.4996 71.1537 58.1658 70.8388 59.7318 70.2043L59.1528 68.7754C57.78 69.3317 56.3113 69.6121 54.7401 69.6121V71.1537ZM59.7263 70.2064C61.313 69.5775 62.7031 68.7082 63.8883 67.596L62.8333 66.4718C61.798 67.4434 60.5758 68.2114 59.1583 68.7732L59.7263 70.2064ZM63.8961 67.5885C65.0773 66.4483 66.0004 65.1309 66.6614 63.6401L65.2521 63.0151C64.6723 64.3227 63.8647 65.476 62.8254 66.4793L63.8961 67.5885ZM66.6553 63.6536C67.358 62.1482 67.7072 60.533 67.7072 58.8176H66.1656C66.1656 60.3172 65.8617 61.7087 65.2583 63.0016L66.6553 63.6536ZM67.7072 58.8176C67.7072 57.1022 67.358 55.4995 66.6525 54.0204L65.261 54.684C65.8617 55.9436 66.1656 57.3179 66.1656 58.8176H67.7072ZM66.6614 54.0397C65.9995 52.5469 65.0741 51.2413 63.8883 50.1285L62.8333 51.2527C63.868 52.2237 64.6732 53.3592 65.2521 54.6647L66.6614 54.0397ZM63.8883 50.1285C62.7001 49.0135 61.3057 48.1573 59.7139 47.5579L59.1707 49.0007C60.583 49.5325 61.801 50.2839 62.8333 51.2527L63.8883 50.1285ZM59.7318 47.5649C58.1658 46.9304 56.4996 46.6154 54.7401 46.6154V48.1571C56.3113 48.1571 57.78 48.4375 59.1528 48.9937L59.7318 47.5649ZM79.0136 44.0043H85.724V42.4626H79.0136V44.0043ZM85.0511 43.6095L96.9045 64.82L98.2503 64.0679L86.3969 42.8574L85.0511 43.6095ZM98.2516 64.8176L110.007 43.6071L108.659 42.8598L96.9032 64.0703L98.2516 64.8176ZM109.333 44.0043H116.043V42.4626H109.333V44.0043ZM115.272 43.2334V74.4911H116.814V43.2334H115.272ZM116.043 73.7202H110.704V75.2619H116.043V73.7202ZM111.475 74.4895L111.426 50.5997L109.884 50.6029L109.933 74.4926L111.475 74.4895ZM109.979 50.2319L98.7132 70.8619L100.066 71.6008L111.332 50.9707L109.979 50.2319ZM99.3897 70.4605H95.7161V72.0022H99.3897V70.4605ZM96.3913 70.8594L85.0277 50.2294L83.6774 50.9732L95.041 71.6032L96.3913 70.8594ZM83.5817 50.6013V74.4911H85.1234V50.6013H83.5817ZM84.3526 73.7202H79.0136V75.2619H84.3526V73.7202ZM79.7845 74.4911V43.2334H78.2428V74.4911H79.7845ZM125.077 44.0043H130.857V42.4626H125.077V44.0043ZM130.086 43.2334V74.4911H131.627V43.2334H130.086ZM130.857 73.7202H125.077V75.2619H130.857V73.7202ZM125.848 74.4911V43.2334H124.306V74.4911H125.848ZM139.857 44.0043H145.539V42.4626H139.857V44.0043ZM144.937 43.7151L164.774 68.498L165.978 67.5346L146.141 42.7517L144.937 43.7151ZM165.152 67.2787L163.683 67.7253L164.131 69.2003L165.6 68.7538L165.152 67.2787ZM164.678 68.4628V43.2334H163.136V68.4628H164.678ZM163.907 44.0043H169.589V42.4626H163.907V44.0043ZM168.818 43.2334V74.4911H170.359V43.2334H168.818ZM169.589 73.7202H163.907V75.2619H169.589V73.7202ZM164.509 74.0096L144.72 49.2714L143.517 50.2344L163.305 74.9726L164.509 74.0096ZM144.336 50.4924L145.854 50.0459L145.419 48.5668L143.901 49.0134L144.336 50.4924ZM144.866 49.3063V74.4911H146.408V49.3063H144.866ZM145.637 73.7202H139.857V75.2619H145.637V73.7202ZM140.628 74.4911V43.2334H139.086V74.4911H140.628ZM204.575 50.3758C203.191 49.1767 201.571 48.252 199.724 47.5974L199.209 49.0505C200.889 49.6462 202.338 50.4779 203.566 51.5412L204.575 50.3758ZM199.739 47.603C197.924 46.9161 196.069 46.5707 194.177 46.5707V48.1124C195.877 48.1124 197.548 48.4219 199.194 49.0449L199.739 47.603ZM194.177 46.5707C192.325 46.5707 190.595 46.8837 188.994 47.5181L189.563 48.9512C190.966 48.3948 192.502 48.1124 194.177 48.1124V46.5707ZM188.994 47.5181C187.41 48.1462 186.007 49.0134 184.792 50.121L185.83 51.2602C186.901 50.2839 188.143 49.5138 189.563 48.9512L188.994 47.5181ZM184.792 50.121C183.574 51.2313 182.615 52.5346 181.919 54.0262L183.316 54.6782C183.926 53.3715 184.763 52.2337 185.83 51.2602L184.792 50.121ZM181.915 54.0341C181.246 55.5102 180.916 57.1081 180.916 58.8176H182.457C182.457 57.312 182.747 55.933 183.319 54.6703L181.915 54.0341ZM180.916 58.8176C180.916 60.5272 181.246 62.1376 181.912 63.6401L183.322 63.0151C182.747 61.7193 182.457 60.323 182.457 58.8176H180.916ZM181.919 63.6536C182.614 65.1431 183.57 66.4584 184.784 67.5962L185.838 66.4716C184.766 65.466 183.927 64.3105 183.316 63.0016L181.919 63.6536ZM184.792 67.6035C186.007 68.711 187.41 69.5782 188.994 70.2064L189.563 68.7732C188.143 68.2106 186.901 67.4406 185.83 66.4642L184.792 67.6035ZM189 70.2085C190.63 70.8407 192.374 71.1537 194.226 71.1537V69.6121C192.551 69.6121 190.997 69.3297 189.557 68.7712L189 70.2085ZM194.226 71.1537C195.923 71.1537 197.658 70.8378 199.428 70.2172L198.918 68.7624C197.291 69.3326 195.729 69.6121 194.226 69.6121V71.1537ZM199.423 70.2187C201.223 69.5997 202.845 68.7607 204.284 67.6987L203.368 66.4583C202.064 67.4206 200.584 68.1892 198.922 68.7609L199.423 70.2187ZM203.256 67.5972L206.586 71.2588L207.727 70.2215L204.396 66.5598L203.256 67.5972ZM206.713 70.1096C205.623 70.8763 204.351 71.5649 202.893 72.1719L203.485 73.5952C205.031 72.9519 206.404 72.2115 207.6 71.3707L206.713 70.1096ZM202.887 72.1742C201.462 72.7805 199.972 73.2575 198.417 73.6048L198.753 75.1094C200.398 74.7422 201.977 74.2368 203.491 73.5928L202.887 72.1742ZM198.43 73.6019C196.879 73.9194 195.347 74.0774 193.834 74.0774V75.6191C195.455 75.6191 197.091 75.4497 198.739 75.1123L198.43 73.6019ZM193.834 74.0774C191.369 74.0774 189.092 73.6888 186.997 72.9191L186.466 74.3662C188.746 75.204 191.204 75.6191 193.834 75.6191V74.0774ZM187.01 72.9237C184.935 72.1213 183.103 71.0211 181.509 69.6244L180.493 70.7841C182.229 72.3049 184.218 73.4969 186.453 74.3616L187.01 72.9237ZM181.514 69.6295C179.957 68.2379 178.746 66.624 177.877 64.7844L176.483 65.4431C177.443 67.4735 178.779 69.2533 180.487 70.7791L181.514 69.6295ZM177.879 64.7885C177.014 62.9288 176.58 60.9414 176.58 58.8176H175.038C175.038 61.1591 175.518 63.3692 176.481 65.439L177.879 64.7885ZM176.58 58.8176C176.58 56.6937 177.014 54.7395 177.875 52.9442L176.485 52.2772C175.518 54.2924 175.038 56.4761 175.038 58.8176H176.58ZM177.873 52.9496C178.773 51.1089 180.016 49.4933 181.607 48.1L180.591 46.9403C178.851 48.4644 177.481 50.2426 176.488 52.2719L177.873 52.9496ZM181.607 48.1C183.195 46.7086 185.053 45.6246 187.19 44.8513L186.665 43.4017C184.361 44.2359 182.333 45.4144 180.591 46.9403L181.607 48.1ZM187.186 44.8525C189.35 44.0807 191.678 43.6917 194.177 43.6917V42.15C191.516 42.15 189.011 42.5648 186.668 43.4005L187.186 44.8525ZM194.177 43.6917C195.753 43.6917 197.295 43.864 198.805 44.2083L199.148 42.7051C197.524 42.3349 195.866 42.15 194.177 42.15V43.6917ZM198.809 44.209C200.359 44.555 201.826 45.0444 203.212 45.6763L203.852 44.2735C202.364 43.5956 200.795 43.0728 199.145 42.7044L198.809 44.209ZM203.212 45.6763C204.593 46.3055 205.807 47.0591 206.86 47.9344L207.845 46.7488C206.678 45.7783 205.345 44.9542 203.852 44.2735L203.212 45.6763ZM206.782 46.8236L203.5 50.4406L204.642 51.4765L207.923 47.8595L206.782 46.8236ZM202.112 59.9903H207.157V58.4486H202.112V59.9903ZM206.386 59.2195V70.7401H207.927V59.2195H206.386ZM207.157 69.9693H202.112V71.511H207.157V69.9693ZM202.882 70.7401V59.2195H201.341V70.7401H202.882ZM249.79 49.7993C248.512 49.0633 247.243 48.4763 245.983 48.0418L245.48 49.4992C246.637 49.8982 247.817 50.4424 249.021 51.1353L249.79 49.7993ZM245.983 48.0418C244.741 47.6133 243.556 47.3037 242.429 47.117L242.177 48.6379C243.206 48.8084 244.306 49.0942 245.48 49.4992L245.983 48.0418ZM242.429 47.117C241.319 46.933 240.297 46.8387 239.364 46.8387V48.3803C240.195 48.3803 241.132 48.4646 242.177 48.6379L242.429 47.117ZM239.364 46.8387C237.586 46.8387 236.08 47.1488 234.908 47.8381L235.69 49.167C236.542 48.6656 237.746 48.3803 239.364 48.3803V46.8387ZM234.908 47.8381C233.671 48.5655 233.01 49.6755 233.01 51.0925H234.551C234.551 50.247 234.902 49.6304 235.69 49.167L234.908 47.8381ZM233.01 51.0925C233.01 52.2875 233.403 53.3236 234.214 54.1374L235.306 53.0488C234.811 52.5527 234.551 51.9217 234.551 51.0925H233.01ZM234.241 54.1627C235.012 54.8658 235.981 55.4319 237.127 55.8749L237.683 54.437C236.673 54.0466 235.88 53.5707 235.279 53.0235L234.241 54.1627ZM237.151 55.8839C238.28 56.2774 239.506 56.6547 240.826 57.0159L241.233 55.5288C239.941 55.1755 238.75 54.8085 237.659 54.4281L237.151 55.8839ZM240.831 57.0171C242.153 57.3698 243.458 57.7666 244.748 58.2074L245.246 56.7486C243.923 56.2963 242.584 55.8893 241.228 55.5275L240.831 57.0171ZM244.763 58.2123C246.012 58.611 247.163 59.1361 248.217 59.7863L249.026 58.4741C247.86 57.7548 246.594 57.1785 245.231 56.7436L244.763 58.2123ZM248.217 59.7863C249.228 60.4097 250.021 61.2021 250.608 62.1659L251.925 61.3636C251.206 60.184 250.236 59.22 249.026 58.4741L248.217 59.7863ZM250.613 62.1741C251.169 63.061 251.475 64.2326 251.475 65.7389H253.017C253.017 64.0302 252.67 62.5523 251.92 61.3553L250.613 62.1741ZM251.475 65.7389C251.475 67.4168 250.975 68.8508 249.982 70.0761L251.18 71.047C252.407 69.5335 253.017 67.7524 253.017 65.7389H251.475ZM249.987 70.0696C248.978 71.2876 247.563 72.2601 245.703 72.9667L246.25 74.4079C248.309 73.626 249.963 72.5147 251.174 71.0534L249.987 70.0696ZM245.699 72.9682C243.878 73.6717 241.755 74.0328 239.315 74.0328V75.5745C241.905 75.5745 244.222 75.1913 246.254 74.4063L245.699 72.9682ZM239.315 74.0328C237.58 74.0328 235.894 73.8315 234.258 73.4299L233.891 74.9271C235.65 75.359 237.459 75.5745 239.315 75.5745V74.0328ZM234.27 73.433C232.62 72.9991 231.07 72.4216 229.616 71.7016L228.932 73.083C230.483 73.8515 232.132 74.4648 233.878 74.924L234.27 73.433ZM229.622 71.7047C228.201 70.9849 226.928 70.1531 225.801 69.2109L224.812 70.3939C226.036 71.4165 227.408 72.3113 228.926 73.08L229.622 71.7047ZM225.974 70.1875L228.472 65.8561L227.137 65.0859L224.639 69.4173L225.974 70.1875ZM227.31 66.0625C228.526 67.0787 229.813 67.9432 231.169 68.6543L231.885 67.2889C230.629 66.6306 229.434 65.8281 228.299 64.8795L227.31 66.0625ZM231.176 68.6579C232.56 69.3653 233.949 69.9068 235.345 70.2793L235.742 68.7897C234.461 68.4477 233.173 67.9473 231.878 67.2853L231.176 68.6579ZM235.349 70.2804C236.774 70.6514 238.129 70.8412 239.413 70.8412V69.2995C238.281 69.2995 237.057 69.132 235.738 68.7885L235.349 70.2804ZM239.413 70.8412C241.513 70.8412 243.248 70.4734 244.533 69.6469L243.698 68.3504C242.762 68.9528 241.363 69.2995 239.413 69.2995V70.8412ZM244.524 69.6523C245.878 68.806 246.601 67.5692 246.601 66.0068H245.059C245.059 67.0046 244.639 67.7624 243.707 68.345L244.524 69.6523ZM246.601 66.0068C246.601 64.7776 246.187 63.7266 245.32 62.9366L244.282 64.0759C244.787 64.5362 245.059 65.1522 245.059 66.0068H246.601ZM245.347 62.9619C244.597 62.2101 243.613 61.622 242.427 61.177L241.885 62.6204C242.92 63.0089 243.699 63.4925 244.255 64.0505L245.347 62.9619ZM242.434 61.1798C241.32 60.749 240.08 60.3675 238.715 60.0336L238.348 61.5311C239.661 61.8521 240.837 62.2149 241.878 62.6176L242.434 61.1798ZM238.719 60.0347C237.427 59.7108 236.119 59.3427 234.793 58.93L234.335 60.402C235.687 60.8229 237.023 61.1989 238.344 61.53L238.719 60.0347ZM234.813 58.9366C233.553 58.5058 232.393 57.9764 231.331 57.3499L230.548 58.6777C231.706 59.3611 232.963 59.9331 234.315 60.3954L234.813 58.9366ZM231.34 57.3551C230.359 56.7588 229.561 55.9902 228.938 55.0448L227.651 55.8923C228.4 57.0307 229.365 57.959 230.539 58.6725L231.34 57.3551ZM228.948 55.0592C228.392 54.1723 228.086 53.0007 228.086 51.4944H226.544C226.544 53.2031 226.891 54.681 227.641 55.8779L228.948 55.0592ZM228.086 51.4944C228.086 49.9036 228.554 48.5606 229.479 47.4271L228.285 46.4522C227.121 47.879 226.544 49.5724 226.544 51.4944H228.086ZM229.485 47.4204C230.429 46.2366 231.76 45.2975 233.518 44.6229L232.965 43.1836C231 43.9378 229.425 45.0231 228.28 46.459L229.485 47.4204ZM233.514 44.6245C235.303 43.9493 237.396 43.6024 239.805 43.6024V42.0607C237.251 42.0607 234.968 42.4283 232.97 43.182L233.514 44.6245ZM239.805 43.6024C241.956 43.6024 244.04 43.8906 246.059 44.466L246.482 42.9833C244.322 42.3679 242.095 42.0607 239.805 42.0607V43.6024ZM246.059 44.466C248.095 45.046 249.877 45.7956 251.411 46.7089L252.2 45.3843C250.534 44.3924 248.625 43.594 246.482 42.9833L246.059 44.466ZM251.128 45.6788L248.728 50.0995L250.083 50.8351L252.483 46.4144L251.128 45.6788ZM274.34 43.6917C276.805 43.6917 279.081 44.0803 281.176 44.8501L281.708 43.403C279.428 42.5651 276.969 42.15 274.34 42.15V43.6917ZM281.18 44.8513C283.315 45.6242 285.155 46.7069 286.708 48.095L287.736 46.9454C286.024 45.4161 284.01 44.2363 281.705 43.4017L281.18 44.8513ZM286.714 48.1C288.303 49.4915 289.527 51.104 290.395 52.94L291.789 52.2814C290.827 50.2475 289.472 48.4662 287.73 46.9403L286.714 48.1ZM290.401 52.9538C291.293 54.7471 291.741 56.6979 291.741 58.8176H293.283C293.283 56.4719 292.784 54.2848 291.782 52.2676L290.401 52.9538ZM291.741 58.8176C291.741 60.9372 291.293 62.9212 290.397 64.7791L291.786 65.4484C292.784 63.3768 293.283 61.1633 293.283 58.8176H291.741ZM290.395 64.7844C289.527 66.6205 288.303 68.233 286.714 69.6244L287.73 70.7841C289.472 69.2583 290.827 67.477 291.789 65.4431L290.395 64.7844ZM286.708 69.6295C285.153 71.0195 283.31 72.1181 281.171 72.921L281.713 74.3643C284.015 73.5 286.026 72.3065 287.736 70.7791L286.708 69.6295ZM281.176 72.9191C279.081 73.6888 276.805 74.0774 274.34 74.0774V75.6191C276.969 75.6191 279.428 75.204 281.708 74.3662L281.176 72.9191ZM274.34 74.0774C271.875 74.0774 269.581 73.6888 267.451 72.9178L266.926 74.3674C269.237 75.204 271.711 75.6191 274.34 75.6191V74.0774ZM267.463 72.9223C265.356 72.1195 263.51 71.0194 261.917 69.6244L260.901 70.7841C262.639 72.3066 264.646 73.4987 266.914 74.363L267.463 72.9223ZM261.923 69.6295C260.363 68.236 259.134 66.619 258.232 64.7749L256.847 65.4526C257.839 67.4786 259.19 69.2552 260.896 70.7791L261.923 69.6295ZM258.238 64.7885C257.373 62.9288 256.939 60.9414 256.939 58.8176H255.397C255.397 61.1591 255.878 63.3692 256.841 65.439L258.238 64.7885ZM256.939 58.8176C256.939 56.6937 257.373 54.7229 258.237 52.8954L256.843 52.2367C255.878 54.2792 255.397 56.4761 255.397 58.8176H256.939ZM258.232 52.9049C259.134 51.0624 260.36 49.4623 261.917 48.1002L260.901 46.9401C259.192 48.4359 257.839 50.1997 256.847 52.2272L258.232 52.9049ZM261.917 48.1C263.507 46.707 265.351 45.6229 267.455 44.8501L266.923 43.403C264.651 44.2376 262.641 45.416 260.901 46.9403L261.917 48.1ZM267.451 44.8513C269.581 44.0803 271.875 43.6917 274.34 43.6917V42.15C271.711 42.15 269.237 42.5652 266.926 43.4017L267.451 44.8513ZM274.389 46.6154C272.599 46.6154 270.902 46.9297 269.305 47.5627L269.873 48.9959C271.28 48.4382 272.783 48.1571 274.389 48.1571V46.6154ZM269.312 47.5599C267.755 48.1593 266.366 49.0133 265.151 50.121L266.19 51.2602C267.261 50.2841 268.484 49.5305 269.866 48.9987L269.312 47.5599ZM265.151 50.121C263.933 51.2313 262.974 52.5346 262.278 54.0262L263.675 54.6782C264.285 53.3715 265.122 52.2337 266.19 51.2602L265.151 50.121ZM262.274 54.0341C261.606 55.5102 261.275 57.1081 261.275 58.8176H262.817C262.817 57.312 263.107 55.933 263.679 54.6703L262.274 54.0341ZM261.275 58.8176C261.275 60.533 261.624 62.1482 262.327 63.6536L263.724 63.0016C263.12 61.7087 262.817 60.3172 262.817 58.8176H261.275ZM262.327 63.6536C263.022 65.1431 263.979 66.4584 265.192 67.5962L266.247 66.4716C265.174 65.466 264.335 64.3105 263.724 63.0016L262.327 63.6536ZM265.2 67.6035C266.412 68.7085 267.797 69.5755 269.348 70.2043L269.927 68.7754C268.54 68.2134 267.312 67.4431 266.239 66.4642L265.2 67.6035ZM269.354 70.2064C270.949 70.8388 272.629 71.1537 274.389 71.1537V69.6121C272.818 69.6121 271.331 69.3317 269.922 68.7732L269.354 70.2064ZM274.389 71.1537C276.149 71.1537 277.815 70.8388 279.381 70.2043L278.802 68.7754C277.429 69.3317 275.96 69.6121 274.389 69.6121V71.1537ZM279.375 70.2064C280.962 69.5775 282.352 68.7082 283.537 67.596L282.482 66.4718C281.447 67.4434 280.225 68.2114 278.807 68.7732L279.375 70.2064ZM283.545 67.5885C284.726 66.4483 285.649 65.1309 286.31 63.6401L284.901 63.0151C284.321 64.3227 283.514 65.476 282.474 66.4793L283.545 67.5885ZM286.304 63.6536C287.007 62.1482 287.356 60.533 287.356 58.8176H285.814C285.814 60.3172 285.511 61.7087 284.907 63.0016L286.304 63.6536ZM287.356 58.8176C287.356 57.1022 287.007 55.4995 286.301 54.0204L284.91 54.684C285.511 55.9436 285.814 57.3179 285.814 58.8176H287.356ZM286.31 54.0397C285.648 52.5469 284.723 51.2414 283.537 50.1285L282.482 51.2527C283.517 52.2237 284.322 53.3592 284.901 54.6647L286.31 54.0397ZM283.537 50.1285C282.349 49.0135 280.955 48.1573 279.363 47.5579L278.82 49.0007C280.232 49.5325 281.45 50.2839 282.482 51.2527L283.537 50.1285ZM279.381 47.5649C277.815 46.9304 276.149 46.6154 274.389 46.6154V48.1571C275.96 48.1571 277.429 48.4375 278.802 48.9937L279.381 47.5649ZM312.606 43.6917C315.071 43.6917 317.348 44.0803 319.443 44.8501L319.974 43.403C317.694 42.5651 315.236 42.15 312.606 42.15V43.6917ZM319.446 44.8513C321.582 45.6242 323.421 46.7069 324.975 48.095L326.002 46.9454C324.29 45.4161 322.277 44.2363 319.971 43.4017L319.446 44.8513ZM324.981 48.1C326.569 49.4915 327.793 51.1039 328.661 52.94L330.055 52.2814C329.094 50.2475 327.738 48.4662 325.996 46.9403L324.981 48.1ZM328.668 52.9538C329.559 54.7471 330.008 56.6979 330.008 58.8176H331.549C331.549 56.4719 331.051 54.2847 330.048 52.2676L328.668 52.9538ZM330.008 58.8176C330.008 60.9372 329.559 62.9212 328.664 64.7791L330.052 65.4484C331.051 63.3768 331.549 61.1633 331.549 58.8176H330.008ZM328.661 64.7844C327.793 66.6205 326.569 68.233 324.981 69.6244L325.996 70.7841C327.738 69.2583 329.094 67.477 330.055 65.4431L328.661 64.7844ZM324.975 69.6295C323.419 71.0195 321.576 72.1181 319.438 72.921L319.98 74.3643C322.282 73.5 324.292 72.3065 326.002 70.7791L324.975 69.6295ZM319.443 72.9191C317.348 73.6888 315.071 74.0774 312.606 74.0774V75.6191C315.236 75.6191 317.694 75.204 319.974 74.3662L319.443 72.9191ZM312.606 74.0774C310.142 74.0774 307.848 73.6888 305.718 72.9178L305.193 74.3674C307.504 75.204 309.977 75.6191 312.606 75.6191V74.0774ZM305.73 72.9223C303.622 72.1195 301.776 71.0194 300.183 69.6244L299.168 70.7841C300.906 72.3066 302.912 73.4987 305.181 74.363L305.73 72.9223ZM300.189 69.6295C298.629 68.236 297.401 66.619 296.498 64.7749L295.114 65.4526C296.105 67.4786 297.456 69.2552 299.162 70.7791L300.189 69.6295ZM296.505 64.7885C295.639 62.9288 295.205 60.9414 295.205 58.8176H293.664C293.664 61.1591 294.144 63.3692 295.107 65.439L296.505 64.7885ZM295.205 58.8176C295.205 56.6937 295.639 54.7229 296.503 52.8954L295.109 52.2367C294.144 54.2792 293.664 56.4761 293.664 58.8176H295.205ZM296.498 52.9049C297.4 51.0624 298.627 49.4623 300.183 48.1002L299.168 46.9401C297.459 48.4359 296.106 50.1997 295.114 52.2272L296.498 52.9049ZM300.183 48.1C301.774 46.7069 303.617 45.6229 305.721 44.8501L305.189 43.403C302.917 44.2376 300.908 45.416 299.168 46.9403L300.183 48.1ZM305.718 44.8513C307.848 44.0803 310.142 43.6917 312.606 43.6917V42.15C309.977 42.15 307.504 42.5652 305.193 43.4017L305.718 44.8513ZM312.655 46.6154C310.865 46.6154 309.168 46.9297 307.571 47.5627L308.139 48.9959C309.546 48.4382 311.05 48.1571 312.655 48.1571V46.6154ZM307.578 47.5599C306.021 48.1593 304.632 49.0133 303.417 50.121L304.456 51.2602C305.527 50.2841 306.751 49.5305 308.132 48.9987L307.578 47.5599ZM303.417 50.121C302.199 51.2313 301.241 52.5346 300.544 54.0262L301.941 54.6782C302.551 53.3715 303.388 52.2337 304.456 51.2602L303.417 50.121ZM300.541 54.0341C299.872 55.5102 299.541 57.1081 299.541 58.8176H301.083C301.083 57.312 301.373 55.9329 301.945 54.6703L300.541 54.0341ZM299.541 58.8176C299.541 60.533 299.891 62.1482 300.593 63.6536L301.99 63.0016C301.387 61.7087 301.083 60.3172 301.083 58.8176H299.541ZM300.593 63.6536C301.289 65.1431 302.245 66.4584 303.459 67.5962L304.513 66.4716C303.441 65.466 302.601 64.3105 301.99 63.0016L300.593 63.6536ZM303.466 67.6035C304.678 68.7085 306.063 69.5755 307.615 70.2043L308.194 68.7754C306.807 68.2134 305.579 67.4431 304.505 66.4642L303.466 67.6035ZM307.62 70.2064C309.215 70.8388 310.896 71.1537 312.655 71.1537V69.6121C311.084 69.6121 309.597 69.3317 308.188 68.7732L307.62 70.2064ZM312.655 71.1537C314.415 71.1537 316.081 70.8388 317.647 70.2043L317.068 68.7754C315.695 69.3317 314.227 69.6121 312.655 69.6121V71.1537ZM317.642 70.2064C319.228 69.5775 320.618 68.7082 321.804 67.596L320.749 66.4718C319.713 67.4434 318.491 68.2114 317.074 68.7732L317.642 70.2064ZM321.811 67.5885C322.993 66.4483 323.916 65.1309 324.577 63.6401L323.167 63.0151C322.588 64.3227 321.78 65.476 320.741 66.4793L321.811 67.5885ZM324.571 63.6536C325.273 62.1482 325.622 60.533 325.622 58.8176H324.081C324.081 60.3172 323.777 61.7087 323.174 63.0016L324.571 63.6536ZM325.622 58.8176C325.622 57.1022 325.273 55.4995 324.568 54.0204L323.176 54.684C323.777 55.9436 324.081 57.3179 324.081 58.8176H325.622ZM324.577 54.0397C323.915 52.5469 322.989 51.2414 321.804 50.1285L320.749 51.2527C321.783 52.2237 322.589 53.3592 323.167 54.6647L324.577 54.0397ZM321.804 50.1285C320.615 49.0135 319.221 48.1573 317.629 47.5579L317.086 49.0007C318.498 49.5325 319.716 50.2839 320.749 51.2527L321.804 50.1285ZM317.647 47.5649C316.081 46.9304 314.415 46.6154 312.655 46.6154V48.1571C314.227 48.1571 315.695 48.4375 317.068 48.9937L317.647 47.5649ZM336.929 44.0043H342.611V42.4626H336.929V44.0043ZM342.009 43.7151L361.846 68.498L363.05 67.5346L343.212 42.7517L342.009 43.7151ZM362.224 67.2787L360.754 67.7253L361.203 69.2003L362.672 68.7538L362.224 67.2787ZM361.749 68.4628V43.2334H360.208V68.4628H361.749ZM360.979 44.0043H366.66V42.4626H360.979V44.0043ZM365.89 43.2334V74.4911H367.431V43.2334H365.89ZM366.66 73.7202H360.979V75.2619H366.66V73.7202ZM361.581 74.0096L341.792 49.2714L340.588 50.2344L360.377 74.9726L361.581 74.0096ZM341.408 50.4924L342.926 50.0459L342.491 48.5668L340.973 49.0134L341.408 50.4924ZM341.938 49.3063V74.4911H343.48V49.3063H341.938ZM342.709 73.7202H336.929V75.2619H342.709V73.7202ZM337.7 74.4911V43.2334H336.158V74.4911H337.7Z" fill="#1F4E75" mask="url(#path-9-outside-1_1436_3354)"/>
</svg>
