<svg width="14" height="14" viewBox="0 0 14 14" fill="none" xmlns="http://www.w3.org/2000/svg">
<path id="Union" fill-rule="evenodd" clip-rule="evenodd" d="M11.7524 6.57492C11.7524 9.5441 9.34536 11.9511 6.37618 11.9511C3.407 11.9511 1 9.5441 1 6.57492C1 3.60574 3.407 1.19874 6.37618 1.19874C9.34536 1.19874 11.7524 3.60574 11.7524 6.57492ZM10.4398 11.4887C9.33648 12.4021 7.92044 12.9511 6.37618 12.9511C2.85471 12.9511 0 10.0964 0 6.57492C0 3.05345 2.85471 0.198738 6.37618 0.198738C9.89765 0.198738 12.7524 3.05345 12.7524 6.57492C12.7524 8.19213 12.1503 9.66871 11.1581 10.7928L13.4595 13.0942L12.7524 13.8013L10.4398 11.4887Z" fill="#828282"/>
</svg>
